<?xml version="1.0" encoding="UTF-8"?>
<svg version="1.1" xmlns="http://www.w3.org/2000/svg" width="750" height="333">
<path d="M0 0 C4.29 0 8.58 0 13 0 C13.556875 1.80339844 14.11375 3.60679687 14.6875 5.46484375 C17.11436282 13.31321643 19.55266459 21.15798759 22 29 C22.38913574 30.24700684 22.77827148 31.49401367 23.17919922 32.77880859 C24.25936167 36.22944427 25.34694725 39.67763592 26.4375 43.125 C26.76685547 44.1780835 27.09621094 45.23116699 27.43554688 46.31616211 C27.74427734 47.28690674 28.05300781 48.25765137 28.37109375 49.2578125 C28.63849365 50.1048877 28.90589355 50.95196289 29.18139648 51.82470703 C29.99677457 54.24010789 29.99677457 54.24010789 32 57 C34.1711557 57.40146079 34.1711557 57.40146079 36.5625 57.25 C37.36816406 57.23453125 38.17382812 57.2190625 39.00390625 57.203125 C40.99803449 57.21259465 40.99803449 57.21259465 42 56 C42.09311889 54.49581261 42.11746028 52.98728644 42.11352539 51.48022461 C42.11344986 50.51930405 42.11337433 49.55838348 42.11329651 48.56834412 C42.10813522 47.523564 42.10297394 46.47878387 42.09765625 45.40234375 C42.0962413 44.33834854 42.09482635 43.27435333 42.09336853 42.17811584 C42.08775064 38.76454917 42.07519511 35.351047 42.0625 31.9375 C42.05748731 29.62955824 42.052924 27.32161545 42.04882812 25.01367188 C42.0377754 19.34242574 42.02101987 13.67121747 42 8 C40.02 7.34 38.04 6.68 36 6 C36 4.02 36 2.04 36 0 C42.93 0 49.86 0 57 0 C58.37671875 2.46339844 58.37671875 2.46339844 59.78125 4.9765625 C66.13922396 16.34592236 72.5091479 27.70591735 79 39 C79 28.77 79 18.54 79 8 C77.02 7.34 75.04 6.68 73 6 C73 4.02 73 2.04 73 0 C80.26 0 87.52 0 95 0 C95 1.98 95 3.96 95 6 C93.02 6.33 91.04 6.66 89 7 C88.67 25.81 88.34 44.62 88 64 C84.7 64 81.4 64 78 64 C75.36060913 60.91580472 73.82628524 58.53448905 72 55 C70.77482035 52.90185048 69.54403145 50.80696953 68.30859375 48.71484375 C67.01512244 46.45750651 65.72480749 44.198358 64.4375 41.9375 C63.14592276 39.67498633 61.85298491 37.41324875 60.55859375 35.15234375 C59.99454834 34.16226318 59.43050293 33.17218262 58.84936523 32.15209961 C56.64175492 28.38939904 54.31212357 24.69939772 52 21 C52 33.21 52 45.42 52 58 C53.98 58 55.96 58 58 58 C58 59.98 58 61.96 58 64 C41.5 64 25 64 8 64 C8 62.02 8 60.04 8 58 C9.98 57.34 11.96 56.68 14 56 C13.34 52.04 12.68 48.08 12 44 C6.06 44 0.12 44 -6 44 C-6.33 48.29 -6.66 52.58 -7 57 C-5.35 57.33 -3.7 57.66 -2 58 C-2 59.98 -2 61.96 -2 64 C-9.26 64 -16.52 64 -24 64 C-24 62.02 -24 60.04 -24 58 C-23.21828934 57.76212769 -22.43657867 57.52425537 -21.63117981 57.2791748 C-18.43535477 55.72549198 -18.04913114 54.82556662 -16.90112305 51.53320312 C-16.5796933 50.6341626 -16.25826355 49.73512207 -15.92709351 48.80883789 C-15.46818222 47.41846313 -15.46818222 47.41846313 -15 46 C-14.56707138 44.72274048 -14.56707138 44.72274048 -14.12539673 43.41967773 C-13.25009549 40.77737767 -12.41167653 38.12572107 -11.58203125 35.46875 C-11.27931808 34.51101685 -10.97660492 33.55328369 -10.66471863 32.56652832 C-9.71038781 29.54547053 -8.76112555 26.52285362 -7.8125 23.5 C-6.85240058 20.44883047 -5.89120705 17.39801448 -4.92814636 14.34777832 C-4.33194029 12.45864601 -3.73756851 10.56893362 -3.1452179 8.67858887 C-2.74426155 7.40586121 -2.74426155 7.40586121 -2.33520508 6.10742188 C-2.10078201 5.36036987 -1.86635895 4.61331787 -1.62483215 3.84362793 C-1 2 -1 2 0 0 Z M3 15 C1.9929564 18.1019264 0.99559195 21.20688098 0 24.3125 C-0.42925781 25.63411133 -0.42925781 25.63411133 -0.8671875 26.98242188 C-1.13789062 27.82998047 -1.40859375 28.67753906 -1.6875 29.55078125 C-1.93886719 30.33106689 -2.19023438 31.11135254 -2.44921875 31.9152832 C-3.12771753 34.12403849 -3.12771753 34.12403849 -3 37 C0.96 37 4.92 37 9 37 C7.73654179 29.51643983 6.11453104 22.28808366 4 15 C3.67 15 3.34 15 3 15 Z " fill="#E3E3E3" transform="translate(534,199)"/>
<path d="M0 0 C4.51654375 -0.09987254 9.03247989 -0.1719343 13.54980469 -0.21972656 C15.08214534 -0.23967724 16.61441152 -0.26684816 18.14648438 -0.30175781 C28.54513993 -0.53253737 36.71331114 0.22798668 45.8125 5.6875 C55.658861 16.0965102 56.4558937 29.72379336 56.171875 43.3046875 C56.05033438 47.19242924 55.80592074 51.0595047 55.5 54.9375 C54.95176338 62.33063206 54.81594284 69.71273394 54.75 77.125 C54.72873047 78.29281006 54.70746094 79.46062012 54.68554688 80.66381836 C54.63320179 93.94544813 56.97033391 107.6284815 66.125 117.8125 C73.17013907 124.24898775 81.07900821 126.54051327 90.46875 126.6640625 C93 127 93 127 94.83203125 128.29296875 C96.71607006 131.04656394 96.18265321 133.77312669 96 137 C93.67154963 137.52577911 91.40183368 137.97706068 89.015625 138.11328125 C80.1332371 138.66449326 72.22150685 142.63709527 66 149 C58.77715861 158.99946132 54.87789083 170.06132836 54.8671875 182.36328125 C54.86623077 183.07292526 54.86527405 183.78256927 54.86428833 184.51371765 C54.8636094 186.0173654 54.86544363 187.52101612 54.86962891 189.0246582 C54.87489356 191.26716165 54.86972022 193.50945661 54.86328125 195.75195312 C54.85953866 204.36780855 55.15298675 212.91114546 55.76733398 221.50537109 C56.58408358 233.77289863 57.08446832 247.88238005 48.5 257.71875 C40.3287668 265.4360258 30.46355445 265.48472022 19.81396484 265.39111328 C17.60843516 265.37487806 15.40469641 265.39110561 13.19921875 265.41015625 C11.79166264 265.40817634 10.38410764 265.4043379 8.9765625 265.3984375 C7.70893066 265.39505371 6.44129883 265.39166992 5.13525391 265.38818359 C2 265 2 265 0.07568359 263.67431641 C-1.54323989 261.15443959 -1.194332 258.91498005 -1 256 C1.65888673 254.67055664 3.62815665 254.92068341 6.6015625 254.97265625 C7.73207031 254.98490234 8.86257813 254.99714844 10.02734375 255.00976562 C12.40240983 255.0445793 14.77741897 255.08355749 17.15234375 255.12695312 C25.79503538 255.21015004 32.57358825 254.80532525 40 250 C40.66 250 41.32 250 42 250 C48.43829618 237.76723725 47.54353426 224.85771332 46.50390625 211.48046875 C45.97060201 204.22646247 45.74631577 196.99395018 45.70483398 189.72363281 C45.69330672 188.32802193 45.67284254 186.93245538 45.64331055 185.53710938 C45.31546399 169.9030411 47.54497506 153.67995788 58.2109375 141.46875 C61.9027489 137.69108252 65.75284628 134.15111405 70 131 C69.43152344 130.61070312 68.86304688 130.22140625 68.27734375 129.8203125 C55.80263439 120.78187533 49.60512551 107.8024147 46.8203125 92.83959961 C44.63970481 78.73297261 45.66792091 63.99360944 46.765625 49.8203125 C47.06623759 44.92032723 47.19187314 40.0333002 47.25 35.125 C47.27126953 34.25649414 47.29253906 33.38798828 47.31445312 32.49316406 C47.35147203 25.59442614 46.57744297 18.79222989 41.75 13.5625 C34.64837921 9.52748819 27.96846872 9.80517191 20 10 C6.63333738 10.32681327 6.63333738 10.32681327 1 8 C-1 5 -1 5 -0.625 2.3125 C-0.41875 1.549375 -0.2125 0.78625 0 0 Z " fill="#3B9FAE" transform="translate(615,35)"/>
<path d="M0 0 C2.22705583 0.03157545 4.453405 0.04102149 6.68066406 0.046875 C17.54003462 0.11718305 17.54003462 0.11718305 18.70410156 1.28125 C17.98410156 8.00125 17.98410156 8.00125 16.70410156 9.28125 C11.45457223 10.20361849 6.12239774 10.31673822 0.80566406 10.23828125 C-0.06405029 10.22659912 -0.93376465 10.21491699 -1.82983398 10.20288086 C-3.56598275 10.17237167 -5.30195831 10.12815871 -7.03735352 10.06860352 C-14.05270403 9.94130191 -19.39887709 11.13997336 -25.17089844 15.40625 C-32.09462809 24.77364895 -29.5912048 39.35512499 -28.79980469 50.33203125 C-28.26075229 58.171908 -28.0773196 65.98453222 -28.04589844 73.84375 C-28.02527344 75.13732422 -28.00464844 76.43089844 -27.98339844 77.76367188 C-27.90412423 97.53267716 -33.48378013 114.0601168 -47.29589844 128.28125 C-48.92130888 129.66457804 -50.56975256 131.02587118 -52.29589844 132.28125 C-51.40902344 132.838125 -50.52214844 133.395 -49.60839844 133.96875 C-46.43332194 136.10525008 -43.88541407 138.43909869 -41.29589844 141.28125 C-40.73773438 141.88453125 -40.17957031 142.4878125 -39.60449219 143.109375 C-24.34607066 160.90537419 -27.1273642 185.57159697 -28.29589844 207.28125 C-28.54124245 211.94728205 -28.76711059 216.61379175 -28.98339844 221.28125 C-29.04374268 222.33626709 -29.10408691 223.39128418 -29.16625977 224.47827148 C-29.58010708 233.4163727 -29.36541537 242.20014691 -23.29589844 249.28125 C-15.04753303 256.18685824 -5.02022116 255.53119592 5.20410156 255.34375 C7.54779276 255.30950776 9.89154806 255.27932421 12.23535156 255.25390625 C13.26208984 255.23593994 14.28882813 255.21797363 15.34667969 255.19946289 C17.70410156 255.28125 17.70410156 255.28125 18.70410156 256.28125 C19.1639681 261.5697152 19.1639681 261.5697152 17.62451172 263.95166016 C14.71131656 265.96860153 12.23775634 265.6703174 8.72753906 265.6796875 C8.04285553 265.68255768 7.358172 265.68542786 6.65274048 265.68838501 C5.20191625 265.69042578 3.75106451 265.68489486 2.30029297 265.67236328 C0.10742431 265.65645546 -2.08355959 265.67213208 -4.27636719 265.69140625 C-14.24050705 265.7071832 -23.16179526 265.17513926 -30.79199219 258.09375 C-36.00193987 251.81474811 -37.42145064 244.30379484 -37.42871094 236.3828125 C-37.42966766 235.71140228 -37.43062439 235.03999207 -37.43161011 234.34823608 C-37.43228971 232.92437649 -37.43045071 231.50051377 -37.42626953 230.07666016 C-37.42100217 227.94816667 -37.42617774 225.81989246 -37.43261719 223.69140625 C-37.43618956 215.90590622 -37.17922145 208.20741696 -36.52856445 200.44287109 C-35.20749304 182.49127106 -36.54598212 163.74268547 -48.29589844 149.28125 C-54.5481135 142.54809531 -62.11163226 139.03980977 -71.25292969 138.45703125 C-76.57832522 137.99882322 -76.57832522 137.99882322 -78.29589844 136.28125 C-78.75451913 131.00711207 -78.75451913 131.00711207 -77.25683594 128.63671875 C-74.30191077 126.59417088 -71.15144558 126.70427274 -67.67089844 126.46875 C-60.52728109 125.76678066 -55.684948 124.26863127 -50.29589844 119.28125 C-49.66296875 118.71535156 -49.03003906 118.14945312 -48.37792969 117.56640625 C-38.70249183 107.80844866 -36.38248684 93.5171934 -36.29589844 80.28125 C-36.49841028 71.8239697 -37.06469956 63.37870687 -37.63647461 54.93989563 C-39.97460054 20.32428955 -39.97460054 20.32428955 -29.50683594 8.2109375 C-20.91494536 0.02981459 -11.30694127 -0.16217935 0 0 Z " fill="#3BB5C5" transform="translate(127.2958984375,34.71875)"/>
<path d="M0 0 C4.51654375 -0.09987254 9.03247989 -0.1719343 13.54980469 -0.21972656 C15.08214534 -0.23967724 16.61441152 -0.26684816 18.14648438 -0.30175781 C35.51321286 -0.68718129 35.51321286 -0.68718129 43 4 C47.6186612 9.16850182 47.55734502 14.18750967 47.31640625 20.97265625 C46.57345057 28.08118281 43.20183474 30.77086607 38 35 C38.29769287 35.55985596 38.59538574 36.11971191 38.90209961 36.6965332 C40.24960926 39.23393519 41.59359055 41.77318951 42.9375 44.3125 C43.64036133 45.63411133 43.64036133 45.63411133 44.35742188 46.98242188 C44.80537109 47.82998047 45.25332031 48.67753906 45.71484375 49.55078125 C46.12855225 50.33106689 46.54226074 51.11135254 46.96850586 51.9152832 C48 54 48 54 49 57 C50.64574566 57.02688151 52.29161413 57.04634123 53.9375 57.0625 C54.85402344 57.07410156 55.77054687 57.08570313 56.71484375 57.09765625 C58.96593327 57.25949049 58.96593327 57.25949049 60 56 C60.09822116 54.53724595 60.12798364 53.06980711 60.12939453 51.60375977 C60.13412277 50.20209312 60.13412277 50.20209312 60.13894653 48.77210999 C60.1369223 47.75547775 60.13489807 46.73884552 60.1328125 45.69140625 C60.13376923 44.65435043 60.13472595 43.61729462 60.13571167 42.54881287 C60.13639369 40.35049377 60.13453791 38.15217268 60.13037109 35.95385742 C60.12502854 32.58052051 60.1303126 29.20731708 60.13671875 25.83398438 C60.13605787 23.7031247 60.13477649 21.57226512 60.1328125 19.44140625 C60.13483673 18.42679825 60.13686096 17.41219025 60.13894653 16.36683655 C60.13579437 15.42923996 60.13264221 14.49164337 60.12939453 13.52563477 C60.12859894 12.69814224 60.12780334 11.87064972 60.12698364 11.01808167 C60.1273127 8.92949041 60.1273127 8.92949041 59 7 C56.47266765 6.34444881 56.47266765 6.34444881 54 6 C54 4.02 54 2.04 54 0 C63.24 0 72.48 0 82 0 C82 1.98 82 3.96 82 6 C80.02 6.33 78.04 6.66 76 7 C75.97470521 13.79930835 75.95715651 20.59860463 75.94506836 27.39794922 C75.94003057 29.71240696 75.93320019 32.0268615 75.92456055 34.34130859 C75.91247076 37.6624429 75.90676625 40.98353525 75.90234375 44.3046875 C75.89718246 45.34430634 75.89202118 46.38392517 75.88670349 47.45504761 C75.88659019 48.89631516 75.88659019 48.89631516 75.88647461 50.36669922 C75.884254 51.21497284 75.88203339 52.06324646 75.87974548 52.93722534 C75.86767816 55.06402393 75.86767816 55.06402393 77 57 C79.52733235 57.65555119 79.52733235 57.65555119 82 58 C82 59.98 82 61.96 82 64 C76.25255142 64.07426628 70.5053834 64.12865726 64.75756836 64.16479492 C62.80309177 64.17986301 60.84864888 64.20032124 58.89428711 64.22631836 C56.08178377 64.26278865 53.26972826 64.27974622 50.45703125 64.29296875 C49.15050346 64.31619453 49.15050346 64.31619453 47.81758118 64.33988953 C43.0272992 64.34121248 39.90000048 64.09487525 36 61 C32.28700866 57.10554668 30.32324876 52.76003677 28.25 47.875 C27.93417969 47.15957031 27.61835938 46.44414063 27.29296875 45.70703125 C25.97728447 42.65988368 25 40.35321645 25 37 C23.68 37 22.36 37 21 37 C21.33 43.6 21.66 50.2 22 57 C23.32 57.33 24.64 57.66 26 58 C26 59.98 26 61.96 26 64 C17.42 64 8.84 64 0 64 C0 62.02 0 60.04 0 58 C1.98 57.34 3.96 56.68 6 56 C6 39.83 6 23.66 6 7 C3.03 6.505 3.03 6.505 0 6 C0 4.02 0 2.04 0 0 Z M21 7 C21 14.59 21 22.18 21 30 C27.44671657 30.68992427 27.44671657 30.68992427 29.875 28.625 C32.19989561 25.26681745 32.22503451 22.75234348 32.3125 18.6875 C32.34988281 17.55699219 32.38726562 16.42648438 32.42578125 15.26171875 C31.90109044 11.24229829 31.07101853 9.64435036 28 7 C25.69 7 23.38 7 21 7 Z " fill="#E1E1E1" transform="translate(351,77)"/>
<path d="M0 0 C9.24 0 18.48 0 28 0 C28 1.98 28 3.96 28 6 C26.35 6.33 24.7 6.66 23 7 C22.10502975 10.78963963 21.92205303 14.23739465 22 18.125 C22.06745856 21.5063602 22.0746699 23.7759903 21 27 C26.94 27 32.88 27 39 27 C38.67 20.73 38.34 14.46 38 8 C35.525 7.01 35.525 7.01 33 6 C33 4.02 33 2.04 33 0 C41.91 0 50.82 0 60 0 C60 1.98 60 3.96 60 6 C59.195625 6.12375 58.39125 6.2475 57.5625 6.375 C56.716875 6.58125 55.87125 6.7875 55 7 C53.83166212 9.33667577 53.87323997 10.70779871 53.87060547 13.31030273 C53.86587723 14.64695229 53.86587723 14.64695229 53.86105347 16.01060486 C53.8630777 16.97519119 53.86510193 17.93977753 53.8671875 18.93359375 C53.86623077 19.92247086 53.86527405 20.91134796 53.86428833 21.93019104 C53.86360701 24.02418074 53.86545794 26.11817255 53.86962891 28.2121582 C53.87497216 31.42078393 53.86968519 34.62926931 53.86328125 37.83789062 C53.86394215 39.86979198 53.86522356 41.90169324 53.8671875 43.93359375 C53.86516327 44.89615585 53.86313904 45.85871796 53.86105347 46.85044861 C53.86420563 47.74470047 53.86735779 48.63895233 53.87060547 49.56030273 C53.87140106 50.34702866 53.87219666 51.13375458 53.87301636 51.94432068 C53.9239445 54.20039262 53.9239445 54.20039262 55 57 C56.65 57.33 58.3 57.66 60 58 C60 59.98 60 61.96 60 64 C51.09 64 42.18 64 33 64 C33 62.02 33 60.04 33 58 C34.65 57.34 36.3 56.68 38 56 C38.33 48.74 38.66 41.48 39 34 C30.585 34.495 30.585 34.495 22 35 C21.97299325 37.91672884 21.95315763 40.83320677 21.9375 43.75 C21.92912109 44.575 21.92074219 45.4 21.91210938 46.25 C21.90888672 47.04921875 21.90566406 47.8484375 21.90234375 48.671875 C21.89710693 49.4050293 21.89187012 50.13818359 21.88647461 50.89355469 C22.00513238 53.09523046 22.24880057 54.92389675 23 57 C25.49034386 58.29660434 25.49034386 58.29660434 28 59 C27.67 60.65 27.34 62.3 27 64 C18.09 64 9.18 64 0 64 C0 62.02 0 60.04 0 58 C1.98 57.34 3.96 56.68 6 56 C6 40.16 6 24.32 6 8 C4.02 7.34 2.04 6.68 0 6 C0 4.02 0 2.04 0 0 Z " fill="#E6E6E6" transform="translate(293,199)"/>
<path d="M0 0 C4.6589553 -0.09982927 9.31727078 -0.17191433 13.97705078 -0.21972656 C15.55789045 -0.23968422 17.13865783 -0.2668606 18.71923828 -0.30175781 C36.5865345 -0.68600074 36.5865345 -0.68600074 44 4 C48.6186612 9.16850182 48.55734502 14.18750967 48.31640625 20.97265625 C47.57345057 28.08118281 44.20183474 30.77086607 39 35 C39.29769287 35.55985596 39.59538574 36.11971191 39.90209961 36.6965332 C41.24960926 39.23393519 42.59359055 41.77318951 43.9375 44.3125 C44.64036133 45.63411133 44.64036133 45.63411133 45.35742188 46.98242188 C45.80537109 47.82998047 46.25332031 48.67753906 46.71484375 49.55078125 C47.12855225 50.33106689 47.54226074 51.11135254 47.96850586 51.9152832 C49 54 49 54 50 57 C51.65 57.33 53.3 57.66 55 58 C55 59.98 55 61.96 55 64 C40.50471591 64.58067162 40.50471591 64.58067162 36 61 C33.07150271 56.21658896 30.60752748 51.2718672 28.25 46.1875 C27.93417969 45.52041016 27.61835938 44.85332031 27.29296875 44.16601562 C25 39.24754802 25 39.24754802 25 37 C23.68 37 22.36 37 21 37 C21.33 43.27 21.66 49.54 22 56 C23.65 56.66 25.3 57.32 27 58 C27 59.98 27 61.96 27 64 C18.09 64 9.18 64 0 64 C0 62.02 0 60.04 0 58 C1.98 57.34 3.96 56.68 6 56 C6.02529589 49.34310718 6.04284396 42.6862267 6.05493164 36.02929688 C6.05996926 33.76334164 6.06679952 31.49738967 6.07543945 29.23144531 C6.08752996 25.97980953 6.09323392 22.72821661 6.09765625 19.4765625 C6.10539818 17.94994492 6.10539818 17.94994492 6.11329651 16.39248657 C6.11337204 15.45166229 6.11344757 14.51083801 6.11352539 13.54150391 C6.11685631 12.29574081 6.11685631 12.29574081 6.12025452 11.02481079 C6.12909182 8.93035036 6.12909182 8.93035036 5 7 C2.47266765 6.34444881 2.47266765 6.34444881 0 6 C0 4.02 0 2.04 0 0 Z M21 7 C21 14.59 21 22.18 21 30 C27.58862504 30.72291834 27.58862504 30.72291834 30.375 28.125 C33.93177221 23.47383634 33.47503157 18.67580823 33 13 C31.62747293 9.88062031 31.020457 8.5102285 28 7 C25.69 7 23.38 7 21 7 Z " fill="#E4E4E4" transform="translate(413,199)"/>
<path d="M0 0 C4.67726589 -0.09968761 9.35389875 -0.17184934 14.03198242 -0.21972656 C15.61965726 -0.23970745 17.20725979 -0.26690203 18.79467773 -0.30175781 C35.80439959 -0.66560213 35.80439959 -0.66560213 43 4 C43.56557617 4.35835937 44.13115234 4.71671875 44.71386719 5.0859375 C51.24781879 9.843708 53.04757966 16.1559623 54.3125 23.8125 C55.68785618 35.55304052 54.55636742 46.36168469 47.39453125 56.20703125 C43.20484228 60.761041 38.17183661 63.45925348 31.97343445 64.26268005 C29.90279172 64.34321758 27.85289761 64.33863541 25.78125 64.29296875 C25.03790405 64.28872391 24.29455811 64.28447906 23.52868652 64.28010559 C21.18540142 64.26349081 18.84301923 64.22587454 16.5 64.1875 C14.89845004 64.17243078 13.29688642 64.15874632 11.6953125 64.14648438 C7.79653417 64.11364426 3.89841944 64.06198563 0 64 C0 62.02 0 60.04 0 58 C1.98 57.34 3.96 56.68 6 56 C6 40.16 6 24.32 6 8 C4.02 7.34 2.04 6.68 0 6 C0 4.02 0 2.04 0 0 Z M21 7 C21 23.5 21 40 21 57 C28.35155441 57.63846951 28.35155441 57.63846951 31.75 55.5 C39.79458938 46.56156735 39.65947634 35.53709838 39.18359375 24.14208984 C38.66784841 18.12460369 36.6591707 13.61966664 32.375 9.4375 C27.67706678 6.5940141 27.64196506 7 21 7 Z " fill="#E5E5E5" transform="translate(234,199)"/>
<path d="M0 0 C4.29 0 8.58 0 13 0 C13.556875 1.80339844 14.11375 3.60679687 14.6875 5.46484375 C17.11436282 13.31321643 19.55266459 21.15798759 22 29 C22.38913574 30.24700684 22.77827148 31.49401367 23.17919922 32.77880859 C24.25936167 36.22944427 25.34694725 39.67763592 26.4375 43.125 C26.76685547 44.1780835 27.09621094 45.23116699 27.43554688 46.31616211 C27.74427734 47.28690674 28.05300781 48.25765137 28.37109375 49.2578125 C28.63849365 50.1048877 28.90589355 50.95196289 29.18139648 51.82470703 C29.99677457 54.24010789 29.99677457 54.24010789 32 57 C34.56282742 57.72965366 34.56282742 57.72965366 37 58 C37 59.65 37 61.3 37 63 C43.6 63 50.2 63 57 63 C57 61.35 57 59.7 57 58 C57.33 58 57.66 58 58 58 C58 59.98 58 61.96 58 64 C41.5 64 25 64 8 64 C8 62.02 8 60.04 8 58 C9.98 57.34 11.96 56.68 14 56 C13.34 52.04 12.68 48.08 12 44 C6.06 44 0.12 44 -6 44 C-6.33 48.29 -6.66 52.58 -7 57 C-5.35 57.33 -3.7 57.66 -2 58 C-2 59.98 -2 61.96 -2 64 C-9.26 64 -16.52 64 -24 64 C-24 62.02 -24 60.04 -24 58 C-23.21828934 57.76212769 -22.43657867 57.52425537 -21.63117981 57.2791748 C-18.43535477 55.72549198 -18.04913114 54.82556662 -16.90112305 51.53320312 C-16.5796933 50.6341626 -16.25826355 49.73512207 -15.92709351 48.80883789 C-15.46818222 47.41846313 -15.46818222 47.41846313 -15 46 C-14.56707138 44.72274048 -14.56707138 44.72274048 -14.12539673 43.41967773 C-13.25009549 40.77737767 -12.41167653 38.12572107 -11.58203125 35.46875 C-11.27931808 34.51101685 -10.97660492 33.55328369 -10.66471863 32.56652832 C-9.71038781 29.54547053 -8.76112555 26.52285362 -7.8125 23.5 C-6.85240058 20.44883047 -5.89120705 17.39801448 -4.92814636 14.34777832 C-4.33194029 12.45864601 -3.73756851 10.56893362 -3.1452179 8.67858887 C-2.74426155 7.40586121 -2.74426155 7.40586121 -2.33520508 6.10742188 C-2.10078201 5.36036987 -1.86635895 4.61331787 -1.62483215 3.84362793 C-1 2 -1 2 0 0 Z M3 15 C1.9929564 18.1019264 0.99559195 21.20688098 0 24.3125 C-0.42925781 25.63411133 -0.42925781 25.63411133 -0.8671875 26.98242188 C-1.13789062 27.82998047 -1.40859375 28.67753906 -1.6875 29.55078125 C-1.93886719 30.33106689 -2.19023438 31.11135254 -2.44921875 31.9152832 C-3.12771753 34.12403849 -3.12771753 34.12403849 -3 37 C0.96 37 4.92 37 9 37 C7.73654179 29.51643983 6.11453104 22.28808366 4 15 C3.67 15 3.34 15 3 15 Z " fill="#DCDCDC" transform="translate(534,199)"/>
<path d="M0 0 C9.24 0 18.48 0 28 0 C28 1.98 28 3.96 28 6 C26.02 6.33 24.04 6.66 22 7 C21.95049561 12.88988016 21.9142308 18.7796387 21.89013672 24.66967773 C21.88009037 26.67262889 21.86645091 28.67556542 21.84912109 30.6784668 C21.82481287 33.56042088 21.81350313 36.44218072 21.8046875 39.32421875 C21.79436493 40.21711105 21.78404236 41.11000336 21.77340698 42.029953 C21.75577502 48.25788828 21.75577502 48.25788828 24 54 C27.69308217 56.46205478 30.71316878 56.57042512 35 56 C38.23613354 54.25746655 38.82395315 53.52814056 40 50 C40.08589303 48.60344541 40.11772715 47.20314223 40.11352539 45.80395508 C40.11344986 44.96331009 40.11337433 44.1226651 40.11329651 43.25654602 C40.10813522 42.35333115 40.10297394 41.45011627 40.09765625 40.51953125 C40.0962413 39.59154221 40.09482635 38.66355316 40.09336853 37.70744324 C40.08776937 34.74242942 40.07521704 31.77749101 40.0625 28.8125 C40.05748489 26.80273547 40.052922 24.79296975 40.04882812 22.78320312 C40.03780021 17.85543968 40.02053617 12.92773263 40 8 C38.02 7.34 36.04 6.68 34 6 C34 4.02 34 2.04 34 0 C41.26 0 48.52 0 56 0 C56 1.98 56 3.96 56 6 C54.02 6.33 52.04 6.66 50 7 C49.9906543 8.28575928 49.98130859 9.57151855 49.97167969 10.89624023 C49.93159134 15.69931775 49.86578069 20.5017674 49.79248047 25.30444336 C49.76437975 27.37695201 49.74311139 29.44956566 49.72900391 31.5222168 C49.70742299 34.51405168 49.66069558 37.50463849 49.609375 40.49609375 C49.60753204 41.87008583 49.60753204 41.87008583 49.60565186 43.27183533 C49.46777616 49.42656258 48.42323625 54.77374686 45 60 C42.72699509 61.83875092 40.71205995 62.79464002 38 64 C37.01 64.495 37.01 64.495 36 65 C26.02267948 65.74403001 18.54754132 65.52562582 10.625 59.0625 C6.41477245 53.71874964 6.6645181 48.18854882 6.5859375 41.66796875 C6.56657135 40.67622147 6.5472052 39.68447418 6.5272522 38.66267395 C6.46761547 35.5043693 6.42113445 32.3460279 6.375 29.1875 C6.3368056 27.04230208 6.29775302 24.89711925 6.2578125 22.75195312 C6.16192708 17.50143638 6.07683322 12.25082824 6 7 C3.69 6.34 1.38 5.68 -1 5 C-0.67 3.35 -0.34 1.7 0 0 Z " fill="#E1E1E1" transform="translate(176,199)"/>
<path d="M0 0 C3.96 0 7.92 0 12 0 C14.60200235 5.70559551 16.46804675 11.49292838 18.25 17.5 C18.86182207 19.53780759 19.47380626 21.57556651 20.0859375 23.61328125 C20.55531738 25.18263428 20.55531738 25.18263428 21.03417969 26.78369141 C22.92359698 33.07569934 24.85434711 39.35520623 26.77832031 45.63671875 C27.05514648 46.54421875 27.33197266 47.45171875 27.6171875 48.38671875 C27.86065918 49.18295654 28.10413086 49.97919434 28.35498047 50.79956055 C28.9577961 52.85602432 29.49674971 54.9171855 30 57 C31.65 57.33 33.3 57.66 35 58 C35 59.98 35 61.96 35 64 C26.09 64 17.18 64 8 64 C8 62.02 8 60.04 8 58 C10.475 57.505 10.475 57.505 13 57 C12.85831863 55.56208484 12.71148957 54.1246763 12.5625 52.6875 C12.48128906 51.88699219 12.40007812 51.08648437 12.31640625 50.26171875 C12.04734307 47.83912821 12.04734307 47.83912821 11 45 C5.39 44.67 -0.22 44.34 -6 44 C-6.33 48.29 -6.66 52.58 -7 57 C-5.35 57.33 -3.7 57.66 -2 58 C-2 59.98 -2 61.96 -2 64 C-8.93 64 -15.86 64 -23 64 C-23 62.02 -23 60.04 -23 58 C-22.25057129 57.87431641 -21.50114258 57.74863281 -20.72900391 57.61914062 C-16.32570308 55.00662577 -15.77292159 50.82582166 -14.3359375 46.09375 C-14.01718658 45.09927856 -13.69843567 44.10480713 -13.37002563 43.0802002 C-12.35311931 39.89234466 -11.36390882 36.69663813 -10.375 33.5 C-9.7023076 31.37703717 -9.02784793 29.25463347 -8.3515625 27.1328125 C-5.48727369 18.11222611 -2.70657358 9.06912558 0 0 Z M2 15 C-0.97 25.89 -0.97 25.89 -4 37 C0.29 37 4.58 37 9 37 C7.58409924 29.59374987 5.88178579 22.30132885 4 15 C3.34 15 2.68 15 2 15 Z " fill="#E8E8E8" transform="translate(377,199)"/>
<path d="M0 0 C3.55129179 2.13227668 5.16701128 4.34837093 6.375 8.375 C6.375 11.5625 6.375 11.5625 5.375 14.375 C1.74438417 17.40051319 0.29069951 17.375 -4.625 17.375 C-5.945 14.075 -7.265 10.775 -8.625 7.375 C-10.935 7.045 -13.245 6.715 -15.625 6.375 C-17.6419017 9.11798631 -18.59370543 10.88471835 -18.8125 14.3125 C-16.3358598 20.69962472 -9.74211103 23.35880158 -3.9375 26.375 C2.01754492 29.55047409 5.06778168 32.28521124 7.75 38.625 C8.82579838 45.07979026 8.52086505 50.9045691 5.375 56.75 C2.19664008 61.18533841 -1.33207816 63.19056994 -6.625 64.375 C-15.16792859 65.25590348 -22.43063586 65.35571364 -29.625 60.375 C-31.93973586 58.42194162 -32.4999502 57.23135372 -32.93359375 54.26171875 C-33.1392423 50.45410474 -33.10876074 48.11924729 -31 44.875 C-28.18904634 43.09966085 -25.91402165 42.67400197 -22.625 42.375 C-22.53863281 42.96667969 -22.45226562 43.55835938 -22.36328125 44.16796875 C-21.63063414 48.28826855 -20.90511046 50.98284536 -18.4375 54.4375 C-14.86646497 56.89754635 -12.87853418 57.00515321 -8.625 56.375 C-6.52257556 55.52280077 -6.52257556 55.52280077 -5.625 53.375 C-5.00506329 49.28115055 -5.00506329 49.28115055 -5.625 45.375 C-9.49017234 40.73823543 -14.18227752 38.19932058 -19.453125 35.50195312 C-24.83741335 32.60497189 -28.34787108 29.1725205 -30.9375 23.5 C-32.41277547 16.79420242 -32.1517604 12.10131269 -28.828125 6.1328125 C-22.65357359 -2.88844768 -9.49830132 -4.22929929 0 0 Z " fill="#DFDFDF" transform="translate(165.625,199.625)"/>
<path d="M0 0 C3.15335979 2.91079366 3.92017772 4.33861538 4.4375 8.625 C4 12 4 12 3 13.875 C-0.1954406 15.67243534 -3.36473107 15.70202714 -7 16 C-7.19335938 15.37351563 -7.38671875 14.74703125 -7.5859375 14.1015625 C-7.97652344 12.87566406 -7.97652344 12.87566406 -8.375 11.625 C-8.63023437 10.81289062 -8.88546875 10.00078125 -9.1484375 9.1640625 C-9.89854283 6.83540815 -9.89854283 6.83540815 -12 5 C-15.56592619 5.16417032 -15.56592619 5.16417032 -19 6 C-20.56935594 9.13871188 -20.35201103 11.53855822 -20 15 C-16.5824368 19.069136 -12.71345067 21.46138893 -8.0625 23.875 C-1.65014532 27.36227485 3.59071194 30.77213583 6 38 C6.96059113 50.80172414 6.96059113 50.80172414 3 56 C-5.19863397 63.22504619 -12.37873846 63.61892887 -23 63 C-26.88931719 62.2232788 -29.85769217 60.95806463 -32.9375 58.375 C-34.60138704 54.65572308 -35.23193541 51.07336572 -35 47 C-33.4375 43.9375 -33.4375 43.9375 -31 42 C-27.75 41.6875 -27.75 41.6875 -25 42 C-24.74605469 42.68707031 -24.49210937 43.37414062 -24.23046875 44.08203125 C-23.88628906 44.98308594 -23.54210937 45.88414062 -23.1875 46.8125 C-22.85105469 47.70582031 -22.51460938 48.59914062 -22.16796875 49.51953125 C-21.01427622 51.96968093 -20.142194 53.3668422 -18 55 C-14.06905293 55.50030235 -11.8994213 55.5996142 -8.5625 53.375 C-6.48885808 50.22306429 -6.33140159 48.71443562 -7 45 C-9.86636955 40.01039375 -13.28193285 38.20962901 -18.375 35.625 C-25.02180721 32.23377183 -30.56680505 28.29958484 -33 21 C-33.70018371 14.24822855 -33.84775646 8.23442207 -29.6640625 2.625 C-21.96578612 -4.89256567 -8.99019859 -5.43157832 0 0 Z " fill="#E0E0E0" transform="translate(503,201)"/>
<path d="M0 0 C3.83847726 2.23911174 6.34620494 3.92871376 7.875 8.1875 C8.02892794 11.34302282 7.6168764 13.03070787 6 15.75 C3.0852162 17.48311469 1.55775472 17.8243673 -1.8125 17.375 C-2.8953125 17.065625 -2.8953125 17.065625 -4 16.75 C-5.485 12.295 -5.485 12.295 -7 7.75 C-9.31 7.42 -11.62 7.09 -14 6.75 C-16.4379511 9.87057741 -17.26323594 12.04991234 -16.9375 15.9375 C-16.47849343 19.72052196 -16.47849343 19.72052196 -14.34375 20.77734375 C-13.5703125 21.09832031 -12.796875 21.41929688 -12 21.75 C-9.84909961 22.86528168 -7.70372964 23.99126223 -5.5625 25.125 C-4.45003906 25.71023437 -3.33757812 26.29546875 -2.19140625 26.8984375 C3.28937134 30.07822768 6.69283487 32.75137066 9 38.75 C10.36719562 45.27047142 10.40970295 50.91289339 6.7734375 56.703125 C3.57571101 60.77295872 0.19562668 63.7774628 -5 64.75 C-20.46246603 65.96307745 -20.46246603 65.96307745 -27 61.75 C-29.57695144 59.50342695 -30.79042099 57.95778008 -31.37890625 54.56640625 C-31.57300124 50.7533788 -31.4459488 48.45322695 -29.375 45.1875 C-26.40106977 43.3874896 -24.41756151 43.43931259 -21 43.75 C-20.82984375 44.43707031 -20.6596875 45.12414062 -20.484375 45.83203125 C-20.24203125 46.73308594 -19.9996875 47.63414063 -19.75 48.5625 C-19.51796875 49.45582031 -19.2859375 50.34914062 -19.046875 51.26953125 C-17.81510779 54.18808416 -16.73464995 55.19817461 -14 56.75 C-10.60155579 57.10773097 -8.14126742 57.33904125 -5.0625 55.75 C-3.36124927 52.54764568 -3.03987961 49.19885351 -4 45.75 C-7.86517234 41.11323543 -12.55727752 38.57432058 -17.828125 35.87695312 C-23.06893063 33.05717184 -26.33990501 29.67492926 -29.3125 24.4375 C-30.95744586 18.0072571 -30.60614988 12.38033425 -27.34375 6.54296875 C-21.10943644 -1.77549033 -9.46401856 -3.78560742 0 0 Z " fill="#E2E2E1" transform="translate(338,77.25)"/>
<path d="M0 0 C9.24 0 18.48 0 28 0 C28 1.98 28 3.96 28 6 C26.02 6.33 24.04 6.66 22 7 C21.97470521 13.79930835 21.95715651 20.59860463 21.94506836 27.39794922 C21.94003057 29.71240696 21.93320019 32.0268615 21.92456055 34.34130859 C21.91247076 37.6624429 21.90676625 40.98353525 21.90234375 44.3046875 C21.89718246 45.34430634 21.89202118 46.38392517 21.88670349 47.45504761 C21.88662796 48.41589264 21.88655243 49.37673767 21.88647461 50.36669922 C21.88314369 51.63910965 21.88314369 51.63910965 21.87974548 52.93722534 C21.86767816 55.06402393 21.86767816 55.06402393 23 57 C25.52733235 57.65555119 25.52733235 57.65555119 28 58 C28 59.65 28 61.3 28 63 C19.09 63 10.18 63 1 63 C1 61.68 1 60.36 1 59 C2.98 58.34 4.96 57.68 7 57 C7.33 41.16 7.66 25.32 8 9 C7.34 9 6.68 9 6 9 C5.67 8.34 5.34 7.68 5 7 C2.47266765 6.34444881 2.47266765 6.34444881 0 6 C0 4.02 0 2.04 0 0 Z " fill="#F4F4F4" transform="translate(405,77)"/>
<path d="M0 0 C2.2093767 0.04482147 4.41766227 0.06156393 6.62744141 0.07348633 C17.37248058 0.17594738 17.37248058 0.17594738 18.55322266 1.35668945 C17.83322266 8.07668945 17.83322266 8.07668945 16.55322266 9.35668945 C11.30369332 10.27905795 5.97151884 10.39217768 0.65478516 10.3137207 C-0.2149292 10.30203857 -1.08464355 10.29035645 -1.98071289 10.27832031 C-3.71686165 10.24781112 -5.45283722 10.20359816 -7.18823242 10.14404297 C-14.20358293 10.01674137 -19.549756 11.21541281 -25.32177734 15.48168945 C-28.10529555 19.24762585 -28.77934681 22.7842922 -29.44677734 27.35668945 C-30.10677734 27.35668945 -30.76677734 27.35668945 -31.44677734 27.35668945 C-31.11677734 33.62668945 -30.78677734 39.89668945 -30.44677734 46.35668945 C-31.10677734 46.02668945 -31.76677734 45.69668945 -32.44677734 45.35668945 C-32.44677734 43.70668945 -32.44677734 42.05668945 -32.44677734 40.35668945 C-33.93177734 40.85168945 -33.93177734 40.85168945 -35.44677734 41.35668945 C-35.44677734 40.36668945 -35.44677734 39.37668945 -35.44677734 38.35668945 C-35.94177734 40.83168945 -35.94177734 40.83168945 -36.44677734 43.35668945 C-36.77677734 43.35668945 -37.10677734 43.35668945 -37.44677734 43.35668945 C-37.74751255 35.80489439 -36.98993245 28.75016044 -35.44677734 21.35668945 C-35.26373047 20.45305664 -35.08068359 19.54942383 -34.89208984 18.6184082 C-33.31432071 12.20019919 -30.81599968 8.23515878 -25.44677734 4.35668945 C-17.26442883 0.03255935 -9.01552389 -0.18292664 0 0 Z " fill="#30BBCE" transform="translate(127.44677734375,34.643310546875)"/>
<path d="M0 0 C2 3 2 3 1.625 5.6875 C1.41875 6.450625 1.2125 7.21375 1 8 C1.66 8 2.32 8 3 8 C3.55979092 15.55717742 2.21538834 22.12411428 -2.73046875 28.0859375 C-11.46469738 36.34945919 -21.45357004 36.6489537 -33 37 C-33.72364746 37.02723145 -34.44729492 37.05446289 -35.19287109 37.08251953 C-37.37861903 37.15878328 -39.56332346 37.20931648 -41.75 37.25 C-43.06484375 37.27578125 -44.3796875 37.3015625 -45.734375 37.328125 C-49 37 -49 37 -50.94140625 35.68359375 C-52.53179645 33.15422778 -52.19402376 30.9103564 -52 28 C-42.89934238 23.44967119 -24.95478581 27.43404263 -15 28 C-15 27.34 -15 26.68 -15 26 C-13.35 25.67 -11.7 25.34 -10 25 C-10 24.34 -10 23.68 -10 23 C-7.69 22.67 -5.38 22.34 -3 22 C-3.350625 21.401875 -3.70125 20.80375 -4.0625 20.1875 C-5 18 -5 18 -4 15 C-3.34 15 -2.68 15 -2 15 C-1.90912109 13.50146484 -1.90912109 13.50146484 -1.81640625 11.97265625 C-1.73261719 10.68230469 -1.64882813 9.39195312 -1.5625 8.0625 C-1.48128906 6.77472656 -1.40007813 5.48695313 -1.31640625 4.16015625 C-1 1 -1 1 0 0 Z " fill="#40B4C6" transform="translate(666,263)"/>
<path d="M0 0 C4.51654375 -0.09987254 9.03247989 -0.1719343 13.54980469 -0.21972656 C15.08214534 -0.23967724 16.61441152 -0.26684816 18.14648438 -0.30175781 C28.54513993 -0.53253737 36.71331114 0.22798668 45.8125 5.6875 C55.95126488 16.40562287 56.38309447 30.33924251 56.10546875 44.265625 C56.07066406 45.49796875 56.03585937 46.7303125 56 48 C55.67 48 55.34 48 55 48 C54.93941406 46.81664062 54.87882813 45.63328125 54.81640625 44.4140625 C54.38746861 36.2513016 53.9174035 28.12557387 53 20 C51.68 19.67 50.36 19.34 49 19 C49 18.34 49 17.68 49 17 C47.68 17.33 46.36 17.66 45 18 C44.525625 17.236875 44.05125 16.47375 43.5625 15.6875 C39.55548541 11.48502128 34.88338587 10.20579845 29.13012695 9.79516602 C26.0398862 9.77688649 22.9635818 9.83582619 19.875 9.9375 C6.61763878 10.32165288 6.61763878 10.32165288 1 8 C-1 5 -1 5 -0.625 2.3125 C-0.41875 1.549375 -0.2125 0.78625 0 0 Z " fill="#2F8C9A" transform="translate(615,35)"/>
<path d="M0 0 C2.475 0.495 2.475 0.495 5 1 C4.67 2.32 4.34 3.64 4 5 C4.99 5.33 5.98 5.66 7 6 C7.53625 6.61875 8.0725 7.2375 8.625 7.875 C14.78923038 13.39036402 24.29026563 14.15019552 32.23828125 14.0625 C33.38748047 14.05476563 34.53667969 14.04703125 35.72070312 14.0390625 C36.90599609 14.02617187 38.09128906 14.01328125 39.3125 14 C41.68354952 13.97462761 44.05465029 13.95354826 46.42578125 13.9375 C47.47161377 13.92589844 48.51744629 13.91429687 49.5949707 13.90234375 C52 14 52 14 53 15 C53.46010789 20.29124069 53.46010789 20.29124069 51.90673828 22.68408203 C49.02853992 24.67044428 46.70216292 24.2883945 43.2421875 24.1796875 C42.24845627 24.1506987 42.24845627 24.1506987 41.23464966 24.12112427 C39.83065099 24.07624496 38.42688144 24.02362922 37.0234375 23.96386719 C34.90374596 23.87618904 32.78486177 23.81901575 30.6640625 23.765625 C20.85960768 23.45207558 11.89697904 22.74521716 4.44140625 15.80859375 C0.91833497 11.38804632 -0.54212326 5.60194033 0 0 Z " fill="#44B8CC" transform="translate(93,276)"/>
<path d="M0 0 C2.77316676 0.25483154 5.54234555 0.52809449 8.3125 0.8125 C9.49102539 0.91788086 9.49102539 0.91788086 10.69335938 1.02539062 C11.45068359 1.10595703 12.20800781 1.18652344 12.98828125 1.26953125 C14.03302612 1.37164917 14.03302612 1.37164917 15.09887695 1.47583008 C17.49383263 2.13615753 18.48553937 3.05157969 20 5 C20.1875 7.6875 20.1875 7.6875 20 10 C17.07867528 10.8270417 14.40113335 11.11200043 11.375 11.25 C6.30050754 11.701066 2.5554475 13.39956029 -1.87109375 15.84375 C-4 17 -4 17 -7 18 C-7.66 17.67 -8.32 17.34 -9 17 C-9.66 19.31 -10.32 21.62 -11 24 C-11.33 23.34 -11.66 22.68 -12 22 C-12.99 22 -13.98 22 -15 22 C-14.79375 22.53625 -14.5875 23.0725 -14.375 23.625 C-13.54878355 28.85770419 -16.92069088 34.27429744 -19 39 C-19.66 39 -20.32 39 -21 39 C-21 39.66 -21 40.32 -21 41 C-22.65 40.67 -24.3 40.34 -26 40 C-25.25 33.25 -25.25 33.25 -23 31 C-22.35232207 28.42938689 -22.35232207 28.42938689 -22 26 C-21.34 26 -20.68 26 -20 26 C-20 24.68 -20 23.36 -20 22 C-19.34 22 -18.68 22 -18 22 C-18.07476563 21.26265625 -18.14953125 20.5253125 -18.2265625 19.765625 C-17.86665362 15.37225449 -15.24606119 13.57936145 -12.171875 10.65234375 C-9.50174486 8.62093179 -7.28394582 8.39094593 -4 8 C-2.76709799 5.54295238 -2.76709799 5.54295238 -2 3 C-1.01 2.67 -0.02 2.34 1 2 C0.67 1.34 0.34 0.68 0 0 Z " fill="#3DBCCE" transform="translate(690,161)"/>
<path d="M0 0 C0.33 0 0.66 0 1 0 C0.89838713 2.64193467 0.79668014 5.28386534 0.69458008 7.92578125 C0.60563145 10.24863922 0.51825989 12.57155806 0.43237305 14.89453125 C0.20490007 20.98670851 -0.04714609 27.07559884 -0.359375 33.1640625 C-0.41424072 34.31084473 -0.46910645 35.45762695 -0.52563477 36.63916016 C-0.63087222 38.82422629 -0.74543405 41.00887021 -0.87084961 43.19287109 C-1.30586025 52.63343126 -0.64649597 60.28312218 5 68 C5 68.99 5 69.98 5 71 C-0.75 66.25 -0.75 66.25 -3 64 C-2.67 63.01 -2.34 62.02 -2 61 C-3.32 60.67 -4.64 60.34 -6 60 C-4.1892145 69.9978223 -4.1892145 69.9978223 1.8125 77.75 C9.60920374 82.82991419 18.46290835 82.40754397 27.4375 82.625 C28.74138672 82.66367187 30.04527344 82.70234375 31.38867188 82.7421875 C34.59230999 82.83606701 37.79594832 82.92175154 41 83 C41 83.33 41 83.66 41 84 C37.03483891 84.07493036 33.06995986 84.12896449 29.10424805 84.16479492 C27.10255424 84.18705458 25.10105725 84.22520146 23.09960938 84.26367188 C13.27318328 84.33792698 4.95772656 83.73019867 -2.49609375 76.8125 C-9.59332761 68.25895062 -9.19839644 57.99932515 -9.1875 47.5 C-9.1882251 46.79746094 -9.1889502 46.09492188 -9.18969727 45.37109375 C-9.18805014 30.85003173 -8.28761493 16.46512089 -7 2 C-6.67 2 -6.34 2 -6 2 C-5.67 9.26 -5.34 16.52 -5 24 C-4.01 23.67 -3.02 23.34 -2 23 C-1.34 15.41 -0.68 7.82 0 0 Z " fill="#3295A5" transform="translate(99,216)"/>
<path d="M0 0 C1.1266262 3.37987859 0.57488076 4.67367233 -0.4453125 7.96484375 C-1.94053424 13.45083338 -2.78229413 17.91696264 0 23 C0 23.66 0 24.32 0 25 C0.66 25 1.32 25 2 25 C2.33 26.32 2.66 27.64 3 29 C3 23.39 3 17.78 3 12 C3.33 12 3.66 12 4 12 C5.20325004 28.67429349 6.38360358 45.27062172 6 62 C5.34 62 4.68 62 4 62 C3.94392578 60.62714844 3.94392578 60.62714844 3.88671875 59.2265625 C3.78810547 57.44378906 3.78810547 57.44378906 3.6875 55.625 C3.62949219 54.44164062 3.57148437 53.25828125 3.51171875 52.0390625 C3.34285156 51.03617188 3.17398438 50.03328125 3 49 C2.01 48.34 1.02 47.68 0 47 C-0.33 52.61 -0.66 58.22 -1 64 C-1.33 64 -1.66 64 -2 64 C-2.28941355 59.23545243 -2.57402486 54.47064899 -2.85449219 49.70556641 C-2.9502288 48.08993084 -3.04719999 46.47436787 -3.14550781 44.85888672 C-4.69888763 19.29152295 -4.69888763 19.29152295 -3.125 10.5625 C-2.96257812 9.61503906 -2.80015625 8.66757812 -2.6328125 7.69140625 C-1.9961376 4.98357287 -1.10162471 2.55040007 0 0 Z " fill="#3AAEBF" transform="translate(93,50)"/>
<path d="M0 0 C0.33 0 0.66 0 1 0 C1.23074219 1.18335937 1.46148438 2.36671875 1.69921875 3.5859375 C4.14257251 15.63191372 6.58453461 27.2622346 17 35 C23.67926691 39.06242932 29.67862575 40.56156087 37.46875 40.6640625 C40 41 40 41 41.83203125 42.29296875 C43.71607006 45.04656394 43.18265321 47.77312669 43 51 C40.525 51.495 40.525 51.495 38 52 C39.32 51.34 40.64 50.68 42 50 C41.03223902 46.20452079 41.03223902 46.20452079 39 43 C37.00500882 42.76512459 35.00324911 42.58632629 33 42.4375 C31.906875 42.35371094 30.81375 42.26992187 29.6875 42.18359375 C26.65938812 41.84406261 26.65938812 41.84406261 24.0625 43 C22 44 22 44 20 44 C19.01 46.475 19.01 46.475 18 49 C16.68 48.67 15.36 48.34 14 48 C14.99 47.01 15.98 46.02 17 45 C16.41992188 44.59910156 15.83984375 44.19820312 15.2421875 43.78515625 C9.51386146 39.61652294 5.28806722 35.3311412 2 29 C2 28.34 2 27.68 2 27 C2.99 26.67 3.98 26.34 5 26 C4.72285156 25.12859375 4.44570313 24.2571875 4.16015625 23.359375 C1.76239981 15.47493747 0.30264417 8.26218574 0 0 Z " fill="#237784" transform="translate(668,121)"/>
<path d="M0 0 C2 3 2 3 1.625 5.6875 C1.41875 6.450625 1.2125 7.21375 1 8 C1.66 8 2.32 8 3 8 C3.55979092 15.55717742 2.21538834 22.12411428 -2.73046875 28.0859375 C-12.49042265 37.31990586 -25.34530566 37.23373652 -38.07421875 36.9375 C-45.08372939 36.59170708 -45.08372939 36.59170708 -48 36 C-48.66 35.01 -49.32 34.02 -50 33 C-49.01 33.33 -48.02 33.66 -47 34 C-44.64319787 34.08397157 -42.28405919 34.10728187 -39.92578125 34.09765625 C-39.2419487 34.0962413 -38.55811615 34.09482635 -37.8535614 34.09336853 C-35.67316278 34.08777876 -33.49286749 34.07522822 -31.3125 34.0625 C-29.83268378 34.05748367 -28.35286594 34.052921 -26.87304688 34.04882812 C-23.24866443 34.03781271 -19.6243423 34.02055512 -16 34 C-16.33 33.01 -16.66 32.02 -17 31 C-16.01 31 -15.02 31 -14 31 C-14.33 29.35 -14.66 27.7 -15 26 C-13.35 25.67 -11.7 25.34 -10 25 C-10 24.34 -10 23.68 -10 23 C-7.69 22.67 -5.38 22.34 -3 22 C-3.350625 21.401875 -3.70125 20.80375 -4.0625 20.1875 C-5 18 -5 18 -4 15 C-3.34 15 -2.68 15 -2 15 C-1.90912109 13.50146484 -1.90912109 13.50146484 -1.81640625 11.97265625 C-1.73261719 10.68230469 -1.64882813 9.39195312 -1.5625 8.0625 C-1.48128906 6.77472656 -1.40007813 5.48695313 -1.31640625 4.16015625 C-1 1 -1 1 0 0 Z " fill="#35BACC" transform="translate(666,263)"/>
<path d="M0 0 C0.66 0.66 1.32 1.32 2 2 C1.67 2.66 1.34 3.32 1 4 C1.99 4 2.98 4 4 4 C4.33 17.53 4.66 31.06 5 45 C5.66 45 6.32 45 7 45 C6.67 48.3 6.34 51.6 6 55 C5.34 54.34 4.68 53.68 4 53 C3.01 53.495 3.01 53.495 2 54 C-1.68967907 43.90587798 -1.08901047 32.93712426 -1.125 22.3125 C-1.12967285 21.36318604 -1.1343457 20.41387207 -1.13916016 19.43579102 C-1.12448224 12.90919964 -0.69249867 6.48882293 0 0 Z " fill="#32BBD0" transform="translate(663,204)"/>
<path d="M0 0 C0.33 0 0.66 0 1 0 C3.14335473 11.78845099 3.22743249 25.49453289 -2.75 36.21875 C-6.382999 41.39577357 -11.13266248 44.74150311 -17.1796875 46.54296875 C-23.39149235 47.54959087 -29.73034786 47.20770627 -36 47 C-36 46.67 -36 46.34 -36 46 C-34.53240234 45.94392578 -34.53240234 45.94392578 -33.03515625 45.88671875 C-18.60843208 45.16406631 -18.60843208 45.16406631 -6.50390625 37.86328125 C-1.90793321 32.16904971 -0.52775898 25.12474619 0 18 C-0.66 18 -1.32 18 -2 18 C-2.495 14.535 -2.495 14.535 -3 11 C-3.66 15.62 -4.32 20.24 -5 25 C-5.66 25 -6.32 25 -7 25 C-7.20086443 28.71599191 -7.1519437 29.77208445 -5 33 C-7.64 33 -10.28 33 -13 33 C-13 33.66 -13 34.32 -13 35 C-15.475 35.495 -15.475 35.495 -18 36 C-18 36.66 -18 37.32 -18 38 C-20.97 38 -23.94 38 -27 38 C-27 37.67 -27 37.34 -27 37 C-25.783125 36.731875 -24.56625 36.46375 -23.3125 36.1875 C-19.76336686 35.31435043 -17.08180304 33.99410785 -14 32 C-13.34 32 -12.68 32 -12 32 C-10.26830404 28.8377726 -9.2871024 25.73257278 -8.375 22.25 C-8.11460937 21.26515625 -7.85421875 20.2803125 -7.5859375 19.265625 C-7.29589844 18.14414062 -7.29589844 18.14414062 -7 17 C-6.34 17 -5.68 17 -5 17 C-5 11.72 -5 6.44 -5 1 C-4.34 1.99 -3.68 2.98 -3 4 C-2.34 3.67 -1.68 3.34 -1 3 C-0.67 2.01 -0.34 1.02 0 0 Z " fill="#256E79" transform="translate(669,253)"/>
<path d="M0 0 C3.875 1.75 3.875 1.75 5 4 C5.07092842 6.2072923 5.08415025 8.41667452 5.0625 10.625 C5.05347656 11.81351563 5.04445313 13.00203125 5.03515625 14.2265625 C5.02355469 15.14179687 5.01195313 16.05703125 5 17 C5.66 17 6.32 17 7 17 C7.24923458 24.93396732 6.70994772 32.2441657 5 40 C3.02 40 1.04 40 -1 40 C-0.83701416 39.34298096 -0.67402832 38.68596191 -0.50610352 38.0090332 C0.12151593 34.2775283 0.12396152 30.62584871 0.09765625 26.85546875 C0.0962413 26.08568192 0.09482635 25.31589508 0.09336853 24.52278137 C0.08779606 22.07764712 0.07524871 19.63260632 0.0625 17.1875 C0.05748144 15.52408987 0.05291915 13.8606783 0.04882812 12.19726562 C0.03783566 8.13147472 0.0205901 4.06575317 0 0 Z " fill="#3EBBD0" transform="translate(92,95)"/>
<path d="M0 0 C0.66 0.33 1.32 0.66 2 1 C2.33 6.94 2.66 12.88 3 19 C4.52106634 15.95786733 4.37429338 12.71952428 4.5625 9.375 C4.62727539 8.31539063 4.62727539 8.31539063 4.69335938 7.234375 C4.79944751 5.48981463 4.90022889 3.74493303 5 2 C5.66 2.33 6.32 2.66 7 3 C6.96519531 3.90878906 6.96519531 3.90878906 6.9296875 4.8359375 C6.73143058 14.04072318 7.49996063 21.48327953 13 29 C13 29.99 13 30.98 13 32 C7.25 27.25 7.25 27.25 5 25 C5.33 24.01 5.66 23.02 6 22 C4.68 21.67 3.36 21.34 2 21 C3.8107855 30.9978223 3.8107855 30.9978223 9.8125 38.75 C17.60920374 43.82991419 26.46290835 43.40754397 35.4375 43.625 C36.74138672 43.66367187 38.04527344 43.70234375 39.38867188 43.7421875 C42.59230999 43.83606701 45.79594832 43.92175154 49 44 C49 44.33 49 44.66 49 45 C45.03483891 45.07493036 41.06995986 45.12896449 37.10424805 45.16479492 C35.10255424 45.18705458 33.10105725 45.22520146 31.09960938 45.26367188 C21.29673426 45.33774902 12.91109943 44.75332429 5.50390625 37.79296875 C-3.44251284 27.1269782 -0.89839741 12.81252928 0 0 Z " fill="#1F616B" transform="translate(91,255)"/>
<path d="M0 0 C4.58982793 -0.04964866 9.17949754 -0.08583672 13.76953125 -0.10986328 C15.32912929 -0.11988557 16.8887087 -0.13350705 18.44824219 -0.15087891 C20.69731254 -0.1752941 22.94613322 -0.1865209 25.1953125 -0.1953125 C25.8861795 -0.20563507 26.57704651 -0.21595764 27.28884888 -0.22659302 C31.57260162 -0.22757315 35.01712278 0.43394351 39 2 C39 2.33 39 2.66 39 3 C37.77023437 2.96519531 37.77023437 2.96519531 36.515625 2.9296875 C35.43796875 2.91164062 34.3603125 2.89359375 33.25 2.875 C32.18265625 2.85179687 31.1153125 2.82859375 30.015625 2.8046875 C26.7066871 2.82293107 26.7066871 2.82293107 23 5 C26.3 5.33 29.6 5.66 33 6 C33 6.33 33 6.66 33 7 C29.9166866 7.02911321 26.83340875 7.04683682 23.75 7.0625 C22.87730469 7.07087891 22.00460937 7.07925781 21.10546875 7.08789062 C20.26113281 7.09111328 19.41679688 7.09433594 18.546875 7.09765625 C17.38430176 7.10551147 17.38430176 7.10551147 16.19824219 7.11352539 C14 7 14 7 11.77832031 6.43139648 C11.19147461 6.28903564 10.60462891 6.1466748 10 6 C9.67 6.33 9.34 6.66 9 7 C5.5625 7.25 5.5625 7.25 2 7 C0 4 0 4 0 0 Z " fill="#3ABCCE" transform="translate(614,36)"/>
<path d="M0 0 C0 3 0 3 -1 5 C-0.01 5 0.98 5 2 5 C2 4.34 2 3.68 2 3 C3.98 3 5.96 3 8 3 C7.443125 3.391875 6.88625 3.78375 6.3125 4.1875 C0.18275567 8.9918942 -1.88987633 12.3948244 -3 20 C-3.66 20 -4.32 20 -5 20 C-4.67 26.27 -4.34 32.54 -4 39 C-4.66 38.67 -5.32 38.34 -6 38 C-6 36.35 -6 34.7 -6 33 C-7.485 33.495 -7.485 33.495 -9 34 C-9 33.01 -9 32.02 -9 31 C-9.495 33.475 -9.495 33.475 -10 36 C-10.33 36 -10.66 36 -11 36 C-11.39672944 26.03768294 -10.02222166 16.49841093 -7 7 C-6.34 7 -5.68 7 -5 7 C-4.731875 6.401875 -4.46375 5.80375 -4.1875 5.1875 C-3.01506533 3.02775192 -1.80630718 1.64209744 0 0 Z " fill="#51BCCD" transform="translate(101,42)"/>
<path d="M0 0 C0.66 0 1.32 0 2 0 C2.33 0.66 2.66 1.32 3 2 C3.99 2.33 4.98 2.66 6 3 C8.11222766 11.55364922 7.94282543 19.27249433 7 28 C6.01 28.33 5.02 28.66 4 29 C4 30.32 4 31.64 4 33 C3.34 33 2.68 33 2 33 C2 36.63 2 40.26 2 44 C1.67 44 1.34 44 1 44 C0.815307 31.97443352 1.38678934 20.0065343 2 8 C1.34 8 0.68 8 0 8 C-0.38063221 5.6739143 -0.71269945 3.33944736 -1 1 C-0.67 0.67 -0.34 0.34 0 0 Z " fill="#43B6C8" transform="translate(662,52)"/>
<path d="M0 0 C1.05692047 0.00212242 1.05692047 0.00212242 2.13519287 0.00428772 C4.37663084 0.00986692 6.61796743 0.02241552 8.859375 0.03515625 C10.38281105 0.04017394 11.90624868 0.04473638 13.4296875 0.04882812 C17.15628272 0.05982951 20.88281896 0.07707979 24.609375 0.09765625 C24.609375 0.75765625 24.609375 1.41765625 24.609375 2.09765625 C9.264375 2.59265625 9.264375 2.59265625 -6.390625 3.09765625 C-6.720625 4.08765625 -7.050625 5.07765625 -7.390625 6.09765625 C-8.380625 6.09765625 -9.370625 6.09765625 -10.390625 6.09765625 C-10.390625 5.43765625 -10.390625 4.77765625 -10.390625 4.09765625 C-11.380625 4.75765625 -12.370625 5.41765625 -13.390625 6.09765625 C-10.01245075 6.94219981 -7.71597257 7.20610544 -4.390625 6.09765625 C-4.390625 7.08765625 -4.390625 8.07765625 -4.390625 9.09765625 C-7.40553057 10.10262477 -9.43244192 10.20100928 -12.578125 10.16015625 C-13.47917969 10.15113281 -14.38023438 10.14210938 -15.30859375 10.1328125 C-15.99566406 10.12121094 -16.68273437 10.10960937 -17.390625 10.09765625 C-17.390625 10.75765625 -17.390625 11.41765625 -17.390625 12.09765625 C-18.380625 12.09765625 -19.370625 12.09765625 -20.390625 12.09765625 C-20.390625 11.10765625 -20.390625 10.11765625 -20.390625 9.09765625 C-21.710625 10.74765625 -23.030625 12.39765625 -24.390625 14.09765625 C-25.050625 13.76765625 -25.710625 13.43765625 -26.390625 13.09765625 C-18.98326451 3.56067962 -12.05554789 -0.04783948 0 0 Z " fill="#267C8D" transform="translate(120.390625,34.90234375)"/>
<path d="M0 0 C-0.33 1.65 -0.66 3.3 -1 5 C-1.81984375 4.97679687 -2.6396875 4.95359375 -3.484375 4.9296875 C-4.56203125 4.91164062 -5.6396875 4.89359375 -6.75 4.875 C-7.81734375 4.85179687 -8.8846875 4.82859375 -9.984375 4.8046875 C-12.92470106 4.99512313 -14.52361878 5.47329896 -17 7 C-16.34515625 7.14695313 -15.6903125 7.29390625 -15.015625 7.4453125 C-2.70603647 10.47055036 7.75336169 15.13864899 15 26 C15.73828125 28.80859375 15.73828125 28.80859375 16 31 C15.484375 30.34 14.96875 29.68 14.4375 29 C13.633125 28.01 12.82875 27.02 12 26 C11.53722656 25.37222656 11.07445312 24.74445313 10.59765625 24.09765625 C5.4161504 17.49725394 -1.35380351 13.18955475 -9.6328125 11.4453125 C-11.10500852 11.28497432 -12.58276834 11.16432171 -14.0625 11.10546875 C-19.17270789 10.82729211 -19.17270789 10.82729211 -21 9 C-21.1875 6.0625 -21.1875 6.0625 -21 3 C-18.19138713 0.19138713 -16.10598569 0.59656882 -12.1875 0.375 C-10.96417969 0.30023438 -9.74085937 0.22546875 -8.48046875 0.1484375 C-5.64642298 0.02756911 -2.83565835 -0.03240752 0 0 Z " fill="#2A8191" transform="translate(70,162)"/>
<path d="M0 0 C2.475 0.495 2.475 0.495 5 1 C4.67 2.32 4.34 3.64 4 5 C4.99 5.33 5.98 5.66 7 6 C9.24075801 7.96915098 10.77356855 9.33957494 11.75 12.1875 C12.82903183 14.17976592 12.82903183 14.17976592 14.8984375 14.47265625 C16.92421866 14.72499039 18.96279913 14.86856769 21 15 C21 16.65 21 18.3 21 20 C21.66 20.33 22.32 20.66 23 21 C20.99722415 20.68377223 18.99810662 20.34450114 17 20 C16.18015625 19.87753906 15.3603125 19.75507813 14.515625 19.62890625 C10.79056705 19.00622644 7.7654165 18.4906516 4.5625 16.4375 C1.4243413 11.54197243 -0.5677069 5.86630466 0 0 Z " fill="#30BBCF" transform="translate(93,276)"/>
<path d="M0 0 C0.33 0 0.66 0 1 0 C2.32594359 5.96674616 2.0884587 11.92583615 2 18 C1.34 18 0.68 18 0 18 C0 18.66 0 19.32 0 20 C1.65 20 3.3 20 5 20 C4.45660208 24.56454251 3.20536179 27.9728176 1 32 C0.236875 31.979375 -0.52625 31.95875 -1.3125 31.9375 C-4.10185786 31.87057159 -4.10185786 31.87057159 -7 33 C-7.67573672 34.32875961 -8.34104032 35.66284094 -9 37 C-10.9453125 38.921875 -10.9453125 38.921875 -13.125 40.75 C-14.21167969 41.67039062 -14.21167969 41.67039062 -15.3203125 42.609375 C-16.15175781 43.29773438 -16.15175781 43.29773438 -17 44 C-17.66 43.67 -18.32 43.34 -19 43 C-18.33613281 42.46632812 -17.67226562 41.93265625 -16.98828125 41.3828125 C-6.72970778 32.72667313 -2.09153264 22.72841713 -0.59765625 9.4140625 C-0.34921655 6.27623511 -0.14496072 3.14414809 0 0 Z " fill="#2D828D" transform="translate(91,115)"/>
<path d="M0 0 C-0.52836206 4.34344694 -1.98974332 6.70557129 -4.75 10.0625 C-5.42546875 10.89910156 -6.1009375 11.73570312 -6.796875 12.59765625 C-9.05655007 15.06166364 -11.2423143 17.10712453 -14 19 C-17.3125 18.75 -17.3125 18.75 -20 18 C-19.875 15.75 -19.875 15.75 -19 13 C-17.02866014 11.62464661 -15.02318078 10.29788956 -13 9 C-11.36859229 7.258786 -9.8762066 5.45537912 -8.39453125 3.5859375 C-5.63249446 0.44479762 -4.20414254 0 0 0 Z " fill="#3AB8C7" transform="translate(91,146)"/>
<path d="M0 0 C0.66 0.33 1.32 0.66 2 1 C2.4140625 3.28515625 2.4140625 3.28515625 2.625 6.0625 C2.69976562 6.98160156 2.77453125 7.90070313 2.8515625 8.84765625 C2.90054688 9.55792969 2.94953125 10.26820313 3 11 C3.33 11 3.66 11 4 11 C3.67 18.92 3.34 26.84 3 35 C2.67 34.34 2.34 33.68 2 33 C0.68 33.66 -0.64 34.32 -2 35 C-1.88204571 30.17601086 -1.75781982 25.35224042 -1.62768555 20.52856445 C-1.58427703 18.88635697 -1.54260642 17.24410261 -1.50268555 15.60180664 C-1.4451256 13.24611255 -1.38139108 10.89065572 -1.31640625 8.53515625 C-1.29969376 7.79660904 -1.28298126 7.05806183 -1.26576233 6.2971344 C-1.11387171 1.11387171 -1.11387171 1.11387171 0 0 Z " fill="#37BBCF" transform="translate(95,206)"/>
<path d="M0 0 C0.33 0 0.66 0 1 0 C1.14583333 1.75 1.29166667 3.5 1.4375 5.25 C1.58058594 6.90128906 1.58058594 6.90128906 1.7265625 8.5859375 C1.89699973 10.71396806 2.04210755 12.84436718 2.1484375 14.9765625 C2.6054841 23.05105236 4.56039005 30.32941245 7 38 C5.68 38.66 4.36 39.32 3 40 C-0.8247505 35.30598802 -2.27765128 31.31472245 -2.1875 25.25 C-2.17783203 23.80367187 -2.17783203 23.80367187 -2.16796875 22.328125 C-2 20 -2 20 -1 19 C-0.84379445 17.58672053 -0.74943827 16.1664541 -0.68359375 14.74609375 C-0.64169922 13.89208984 -0.59980469 13.03808594 -0.55664062 12.15820312 C-0.51732422 11.26037109 -0.47800781 10.36253906 -0.4375 9.4375 C-0.39431641 8.53580078 -0.35113281 7.63410156 -0.30664062 6.70507812 C-0.20021858 4.47021515 -0.09820012 2.23523692 0 0 Z " fill="#55BACA" transform="translate(667,109)"/>
<path d="M0 0 C0.33 0.99 0.66 1.98 1 3 C1.33 3.33 1.66 3.66 2 4 C2.36162029 5.32594105 2.69728039 6.65938457 3 8 C1.824375 7.9690625 1.824375 7.9690625 0.625 7.9375 C-1.98114961 7.81315937 -1.98114961 7.81315937 -4 9 C-6.2421875 8.51171875 -6.2421875 8.51171875 -8.875 7.6875 C-9.73867188 7.42324219 -10.60234375 7.15898437 -11.4921875 6.88671875 C-13.77926855 6.07804679 -15.86166935 5.1387854 -18 4 C-17 2 -17 2 -14 1 C-11.97965322 0.95565768 -9.95795155 0.96072026 -7.9375 1 C-3.81259998 1.21151052 -3.81259998 1.21151052 0 0 Z " fill="#47BCD5" transform="translate(71,165)"/>
<path d="M0 0 C1.12670185 3.38010555 0.5811709 4.66554677 -0.44824219 7.95361328 C-1.46184923 11.7129293 -1.74496038 15.57168713 -2.125 19.4375 C-2.25455078 20.67790039 -2.25455078 20.67790039 -2.38671875 21.94335938 C-2.59671616 23.96166778 -2.79914451 25.98076133 -3 28 C-2.01 28.33 -1.02 28.66 0 29 C0.14534014 40.70795574 -0.28874793 52.31514456 -1 64 C-1.33 64 -1.66 64 -2 64 C-2.28941355 59.23545243 -2.57402486 54.47064899 -2.85449219 49.70556641 C-2.9502288 48.08993084 -3.04719999 46.47436787 -3.14550781 44.85888672 C-4.69888763 19.29152295 -4.69888763 19.29152295 -3.125 10.5625 C-2.96257812 9.61503906 -2.80015625 8.66757812 -2.6328125 7.69140625 C-1.9961376 4.98357287 -1.10162471 2.55040007 0 0 Z " fill="#1E606B" transform="translate(93,50)"/>
<path d="M0 0 C0.66 0 1.32 0 2 0 C2.33 0.99 2.66 1.98 3 3 C9.23182639 4.03863773 14.74692761 3.83288874 21 3 C21 3.99 21 4.98 21 6 C19.98679687 6.10957031 18.97359375 6.21914062 17.9296875 6.33203125 C16.57805539 6.49159893 15.22649657 6.65178833 13.875 6.8125 C12.87726562 6.91788086 12.87726562 6.91788086 11.859375 7.02539062 C7.33958024 7.57928704 3.9819613 8.84359663 0 11 C-0.66 11 -1.32 11 -2 11 C-2 10.34 -2 9.68 -2 9 C-3.98 9.33 -5.96 9.66 -8 10 C-7.67 9.01 -7.34 8.02 -7 7 C-4.66666667 7 -2.33333333 7 0 7 C-0.185625 6.030625 -0.37125 5.06125 -0.5625 4.0625 C-0.706875 3.051875 -0.85125 2.04125 -1 1 C-0.67 0.67 -0.34 0.34 0 0 Z " fill="#29BCCF" transform="translate(688,164)"/>
<path d="M0 0 C-0.875 6.875 -0.875 6.875 -2 8 C-3.74260087 8.26314443 -5.49530966 8.46079101 -7.25 8.625 C-8.20390625 8.72039063 -9.1578125 8.81578125 -10.140625 8.9140625 C-12.94844128 8.99845042 -15.28076617 8.66492214 -18 8 C-18 7.67 -18 7.34 -18 7 C-16.35 7 -14.7 7 -13 7 C-13.185625 6.38125 -13.37125 5.7625 -13.5625 5.125 C-14 3 -14 3 -13 1 C-10.3125 0.5859375 -10.3125 0.5859375 -7 0.375 C-5.906875 0.30023438 -4.81375 0.22546875 -3.6875 0.1484375 C-1 0 -1 0 0 0 Z " fill="#38B6C6" transform="translate(146,36)"/>
<path d="M0 0 C0 3 0 3 -1 5 C-0.01 5 0.98 5 2 5 C2 4.34 2 3.68 2 3 C3.98 3 5.96 3 8 3 C7.443125 3.391875 6.88625 3.78375 6.3125 4.1875 C0.18275567 8.9918942 -1.88987633 12.3948244 -3 20 C-3.33 19.34 -3.66 18.68 -4 18 C-5.32 18 -6.64 18 -8 18 C-7.67 14.37 -7.34 10.74 -7 7 C-6.34 7 -5.68 7 -5 7 C-4.731875 6.401875 -4.46375 5.80375 -4.1875 5.1875 C-3.01506533 3.02775192 -1.80630718 1.64209744 0 0 Z " fill="#3EB7C8" transform="translate(101,42)"/>
<path d="M0 0 C0.33 0 0.66 0 1 0 C1.23074219 1.18335937 1.46148438 2.36671875 1.69921875 3.5859375 C4.26395071 16.23032027 6.94556055 26.24945039 17 35 C13.09161134 35 11.88405893 33.49432124 9 31 C8.01 32.32 7.02 33.64 6 35 C2 29.25 2 29.25 2 27 C2.99 26.67 3.98 26.34 5 26 C4.72285156 25.12859375 4.44570313 24.2571875 4.16015625 23.359375 C1.76239981 15.47493747 0.30264417 8.26218574 0 0 Z " fill="#226B76" transform="translate(668,121)"/>
<path d="M0 0 C-2.85809138 1.54350015 -5.54382699 2.46028504 -8.6875 3.25 C-17.69046863 5.91509086 -24.23484902 10.91032507 -29 19 C-31.63545921 24.21235266 -33.84895582 29.57350219 -36 35 C-37 33 -37 33 -36.29296875 30.609375 C-35.92816406 29.66578125 -35.56335938 28.7221875 -35.1875 27.75 C-34.81625 26.76128906 -34.445 25.77257812 -34.0625 24.75390625 C-33.28082966 22.72788571 -32.48743338 20.70637948 -31.6875 18.6875 C-30.86658181 15.47845617 -31.23911516 13.19571632 -32 10 C-29.525 10.99 -29.525 10.99 -27 12 C-26.773125 11.195625 -26.54625 10.39125 -26.3125 9.5625 C-25.879375 8.716875 -25.44625 7.87125 -25 7 C-23.34073387 6.63159151 -21.67229556 6.30383625 -20 6 C-18.30873687 5.2177908 -16.64131936 4.38220915 -15 3.5 C-9.94476945 0.78281358 -5.73178028 -0.16376515 0 0 Z " fill="#1A5C69" transform="translate(706,171)"/>
<path d="M0 0 C2.475 0.495 2.475 0.495 5 1 C5.33 14.86 5.66 28.72 6 43 C5.34 43 4.68 43 4 43 C2.70512984 39.11538953 2.8767396 35.44116044 2.90234375 31.39453125 C2.9037587 30.55532639 2.90517365 29.71612152 2.90663147 28.85148621 C2.91222785 26.17178784 2.92477965 23.4921731 2.9375 20.8125 C2.94251547 18.99544392 2.94707829 17.17838652 2.95117188 15.36132812 C2.96219609 10.90751987 2.97945822 6.45377411 3 2 C2.01 2 1.02 2 0 2 C0 1.34 0 0.68 0 0 Z " fill="#3B929F" transform="translate(664,206)"/>
<path d="M0 0 C8.10541205 8.68437005 9.17337338 19.54885798 9.0625 30.875 C9.05798828 31.75414063 9.05347656 32.63328125 9.04882812 33.5390625 C9.03712337 35.69273803 9.01919069 37.84637817 9 40 C8.67 40 8.34 40 8 40 C7.93941406 38.81664062 7.87882813 37.63328125 7.81640625 36.4140625 C7.38746861 28.2513016 6.9174035 20.12557387 6 12 C4.68 11.67 3.36 11.34 2 11 C2 10.34 2 9.68 2 9 C0.68 9.33 -0.64 9.66 -2 10 C-3.32 8.02 -4.64 6.04 -6 4 C-3.03 4.495 -3.03 4.495 0 5 C0 4.34 0 3.68 0 3 C0 2.01 0 1.02 0 0 Z " fill="#1E6771" transform="translate(662,43)"/>
<path d="M0 0 C0.66 0 1.32 0 2 0 C2.33 1.65 2.66 3.3 3 5 C2.34 5 1.68 5 1 5 C0.67 3.35 0.34 1.7 0 0 Z M-2 5 C0.64 5.33 3.28 5.66 6 6 C0.12132896 11.87867104 -11.10310978 10.88131841 -19 11 C-23.68318826 10.97457793 -28.40389562 10.93254292 -33 10 C-33.66 9.01 -34.32 8.02 -35 7 C-34.01 7.33 -33.02 7.66 -32 8 C-29.64319787 8.08397157 -27.28405919 8.10728187 -24.92578125 8.09765625 C-24.2419487 8.0962413 -23.55811615 8.09482635 -22.8535614 8.09336853 C-20.67316278 8.08777876 -18.49286749 8.07522822 -16.3125 8.0625 C-14.83268378 8.05748367 -13.35286594 8.052921 -11.87304688 8.04882812 C-8.24866443 8.03781271 -4.6243423 8.02055512 -1 8 C-1.495 6.515 -1.495 6.515 -2 5 Z " fill="#52B8C9" transform="translate(651,289)"/>
<path d="M0 0 C0.33 0.66 0.66 1.32 1 2 C1.66 2 2.32 2 3 2 C4.22329074 5.66987221 3.88021006 8.33967822 3.5625 12.1875 C3.46066406 13.45980469 3.35882812 14.73210937 3.25390625 16.04296875 C3.17011719 17.01878906 3.08632813 17.99460937 3 19 C2.01 19.33 1.02 19.66 0 20 C-0.73323796 22.01508358 -0.73323796 22.01508358 -1 24 C-1.02893932 20.37501666 -1.04677792 16.75006287 -1.0625 13.125 C-1.07087891 12.09246094 -1.07925781 11.05992188 -1.08789062 9.99609375 C-1.09111328 9.00996094 -1.09433594 8.02382812 -1.09765625 7.0078125 C-1.10289307 6.09660645 -1.10812988 5.18540039 -1.11352539 4.24658203 C-1 2 -1 2 0 0 Z " fill="#37BBD2" transform="translate(666,61)"/>
<path d="M0 0 C10.56 0 21.12 0 32 0 C32 0.66 32 1.32 32 2 C16.655 2.495 16.655 2.495 1 3 C0.67 3.99 0.34 4.98 0 6 C-0.99 6 -1.98 6 -3 6 C-3.33 5.01 -3.66 4.02 -4 3 C-2.68 2.67 -1.36 2.34 0 2 C0 1.34 0 0.68 0 0 Z " fill="#337681" transform="translate(113,35)"/>
<path d="M0 0 C0.33 0 0.66 0 1 0 C1 2.31 1 4.62 1 7 C0.34 7 -0.32 7 -1 7 C-1 12.61 -1 18.22 -1 24 C-1.99 24 -2.98 24 -4 24 C-4.33 16.74 -4.66 9.48 -5 2 C-4.34 1.67 -3.68 1.34 -3 1 C-3 1.66 -3 2.32 -3 3 C-2.34 3.33 -1.68 3.66 -1 4 C-0.67 2.68 -0.34 1.36 0 0 Z " fill="#3ABCD1" transform="translate(97,250)"/>
<path d="M0 0 C5.28 0 10.56 0 16 0 C16 0.33 16 0.66 16 1 C11.38 1 6.76 1 2 1 C2.66 1.66 3.32 2.32 4 3 C4.66 2.67 5.32 2.34 6 2 C6.5259375 2.7115625 6.5259375 2.7115625 7.0625 3.4375 C9.84163543 5.67873825 12.5144717 5.67117658 16 6 C16 6.33 16 6.66 16 7 C12 7 8 7 4 7 C10.93 7.495 10.93 7.495 18 8 C18 8.33 18 8.66 18 9 C15.56183415 9.0809723 13.12635616 9.14046972 10.6875 9.1875 C9.65206055 9.22520508 9.65206055 9.22520508 8.59570312 9.26367188 C5.73282264 9.3051629 3.53773123 9.30863864 1.01953125 7.86328125 C0 6 0 6 0 0 Z " fill="#31909E" transform="translate(614,291)"/>
<path d="M0 0 C1.43655854 -0.08131463 2.8744483 -0.13933559 4.3125 -0.1875 C5.51326172 -0.23970703 5.51326172 -0.23970703 6.73828125 -0.29296875 C9.53682096 0.06953639 10.17149609 0.92769557 12 3 C13.97620986 4.04622875 15.9737129 5.05439935 18 6 C17.67 7.98 17.34 9.96 17 12 C12.53574823 10.04008459 9.21119892 7.63670059 5.61328125 4.4296875 C3.81942549 2.83997513 1.9446955 1.40018076 0 0 Z M10 4 C10.66 5.32 11.32 6.64 12 8 C12.66 7.01 13.32 6.02 14 5 C12.68 4.67 11.36 4.34 10 4 Z " fill="#40BDCC" transform="translate(69,174)"/>
<path d="M0 0 C0.66 0.33 1.32 0.66 2 1 C1.97679688 1.60585938 1.95359375 2.21171875 1.9296875 2.8359375 C1.73143058 12.04072318 2.49996063 19.48327953 8 27 C8 27.99 8 28.98 8 30 C2.25 25.25 2.25 25.25 0 23 C0.33 22.01 0.66 21.02 1 20 C0.01 19.34 -0.98 18.68 -2 18 C-1.505 16.515 -1.505 16.515 -1 15 C-0.77281504 12.43365139 -0.58391816 9.88321893 -0.4375 7.3125 C-0.39431641 6.61060547 -0.35113281 5.90871094 -0.30664062 5.18554688 C-0.2008264 3.45724794 -0.09993419 1.7286489 0 0 Z " fill="#41A8B7" transform="translate(96,257)"/>
<path d="M0 0 C1.485 0.99 1.485 0.99 3 2 C3.51171875 4.8203125 3.51171875 4.8203125 3.6875 8.125 C3.75324219 9.22070312 3.81898438 10.31640625 3.88671875 11.4453125 C3.92410156 12.28835937 3.96148438 13.13140625 4 14 C4.33 12.68 4.66 11.36 5 10 C5.66 10 6.32 10 7 10 C6.67 13.3 6.34 16.6 6 20 C5.34 19.34 4.68 18.68 4 18 C3.34 18.33 2.68 18.66 2 19 C0.27706865 14.53665816 -0.22240791 10.89798769 -0.125 6.125 C-0.10695313 4.97257813 -0.08890625 3.82015625 -0.0703125 2.6328125 C-0.04710937 1.76398438 -0.02390625 0.89515625 0 0 Z " fill="#3EB9C8" transform="translate(663,239)"/>
<path d="M0 0 C2.31 0 4.62 0 7 0 C7.33 0.99 7.66 1.98 8 3 C7.01 3.495 7.01 3.495 6 4 C6 4.66 6 5.32 6 6 C2.7 6 -0.6 6 -4 6 C-4 5.34 -4 4.68 -4 4 C-5.32 3.34 -6.64 2.68 -8 2 C-5.69 2.33 -3.38 2.66 -1 3 C-0.67 2.01 -0.34 1.02 0 0 Z " fill="#2DBBCE" transform="translate(644,291)"/>
<path d="M0 0 C4.57243893 -0.07749896 8.52188274 0.08141184 13 1 C15.33301986 1.03824623 17.66711508 1.04574284 20 1 C20 1.99 20 2.98 20 4 C17.60385874 4.05425226 15.20896147 4.09379027 12.8125 4.125 C11.80219727 4.15013672 11.80219727 4.15013672 10.77148438 4.17578125 C6.71192193 4.21538674 3.65001185 3.80020002 0 2 C0 1.34 0 0.68 0 0 Z " fill="#2DBCCE" transform="translate(123,293)"/>
<path d="M0 0 C0.33 0 0.66 0 1 0 C1 5.94 1 11.88 1 18 C0.01 18 -0.98 18 -2 18 C-2.33 15.69 -2.66 13.38 -3 11 C-3.33 11 -3.66 11 -4 11 C-4.1875 8.125 -4.1875 8.125 -4 5 C-3.01 4.34 -2.02 3.68 -1 3 C-0.67 2.01 -0.34 1.02 0 0 Z " fill="#35ACBF" transform="translate(669,253)"/>
<path d="M0 0 C2.484375 1.109375 2.484375 1.109375 5 3 C5.453125 5.890625 5.453125 5.890625 5.25 9.25 C5.00270979 14.71654134 5.00270979 14.71654134 5.625 20.125 C6 23 6 23 4 26 C3.89042969 25.11699219 3.78085938 24.23398438 3.66796875 23.32421875 C2.65707211 15.67263522 1.25958594 8.38131409 -1 1 C-0.67 0.67 -0.34 0.34 0 0 Z " fill="#31909B" transform="translate(87,192)"/>
<path d="M0 0 C1.32 0 2.64 0 4 0 C6.10546875 2.23046875 6.10546875 2.23046875 8.1875 5.1875 C9.22970703 6.63189453 9.22970703 6.63189453 10.29296875 8.10546875 C11.91994344 10.86425192 12.61427865 12.85090182 13 16 C12.34 16 11.68 16 11 16 C10.87625 15.360625 10.7525 14.72125 10.625 14.0625 C10.41875 13.381875 10.2125 12.70125 10 12 C9.34 11.67 8.68 11.34 8 11 C7.375 8.4375 7.375 8.4375 7 6 C4.69 5.34 2.38 4.68 0 4 C0 2.68 0 1.36 0 0 Z M-2 4 C-0.02 4.99 -0.02 4.99 2 6 C1.34 6.66 0.68 7.32 0 8 C-0.66 6.68 -1.32 5.36 -2 4 Z " fill="#37A3B2" transform="translate(81,174)"/>
<path d="M0 0 C0.33 0.99 0.66 1.98 1 3 C-0.4375 4.6875 -0.4375 4.6875 -3 6 C-6.14284955 5.35087445 -9.04268993 4.23221253 -12 3 C-12 3.99 -12 4.98 -12 6 C-13.98 5.34 -15.96 4.68 -18 4 C-17 2 -17 2 -14 1 C-11.97965322 0.95565768 -9.95795155 0.96072026 -7.9375 1 C-3.81259998 1.21151052 -3.81259998 1.21151052 0 0 Z " fill="#25BDCD" transform="translate(71,165)"/>
<path d="M0 0 C3.465 1.98 3.465 1.98 7 4 C6.01 4.495 6.01 4.495 5 5 C5 5.99 5 6.98 5 8 C0.25 7.125 0.25 7.125 -2 6 C-2 5.34 -2 4.68 -2 4 C-2.99 4.33 -3.98 4.66 -5 5 C-4.67 4.01 -4.34 3.02 -4 2 C-2.68 2 -1.36 2 0 2 C0 1.34 0 0.68 0 0 Z " fill="#2DBCCD" transform="translate(655,38)"/>
<path d="M0 0 C2.74802693 5.49605386 3.12419068 9.70512316 3.0625 15.8125 C3.05347656 16.97394531 3.04445313 18.13539063 3.03515625 19.33203125 C3.02355469 20.21246094 3.01195313 21.09289062 3 22 C2.34 22.33 1.68 22.66 1 23 C0.67 19.37 0.34 15.74 0 12 C-0.66 12 -1.32 12 -2 12 C-1.34 8.04 -0.68 4.08 0 0 Z " fill="#42A7B8" transform="translate(96,195)"/>
<path d="M0 0 C0.33 0 0.66 0 1 0 C0.85764543 1.72945653 0.71095618 3.45855654 0.5625 5.1875 C0.48128906 6.15042969 0.40007812 7.11335938 0.31640625 8.10546875 C0.02333849 10.78649602 -0.42703754 13.3662986 -1 16 C-2.98 16 -4.96 16 -7 16 C-6.34 13.69 -5.68 11.38 -5 9 C-4.34 9.33 -3.68 9.66 -3 10 C-2.67 9.34 -2.34 8.68 -2 8 C-2.66 7.67 -3.32 7.34 -4 7 C-3.525625 6.5875 -3.05125 6.175 -2.5625 5.75 C-0.83733482 3.817815 -0.43415125 2.51807725 0 0 Z " fill="#3ABCD1" transform="translate(98,119)"/>
<path d="M0 0 C2 2 2 2 2 5 C2.66 5.33 3.32 5.66 4 6 C3.01 6 2.02 6 1 6 C1 7.32 1 8.64 1 10 C1.66 10.33 2.32 10.66 3 11 C2.67 12.32 2.34 13.64 2 15 C0 13 0 13 -2 10 C-2.99387334 8.66209359 -3.9926892 7.32781878 -5 6 C-4.67 5.34 -4.34 4.68 -4 4 C-3.34 4.33 -2.68 4.66 -2 5 C-1.34 3.35 -0.68 1.7 0 0 Z " fill="#43BDD0" transform="translate(87,180)"/>
<path d="M0 0 C1.97909398 -0.02686553 3.95828971 -0.04633375 5.9375 -0.0625 C7.03964844 -0.07410156 8.14179688 -0.08570313 9.27734375 -0.09765625 C12 0 12 0 13 1 C13.3125 3.875 13.3125 3.875 13 7 C11 8.875 11 8.875 9 10 C9 9.34 9 8.68 9 8 C7.35 8 5.7 8 4 8 C4 7.67 4 7.34 4 7 C5.98 7 7.96 7 10 7 C10 6.01 10 5.02 10 4 C9.34 3.67 8.68 3.34 8 3 C8 2.67 8 2.34 8 2 C5.36 1.67 2.72 1.34 0 1 C0 0.67 0 0.34 0 0 Z " fill="#3A9EA8" transform="translate(133,290)"/>
<path d="M0 0 C0.66 0.33 1.32 0.66 2 1 C1.67 2.32 1.34 3.64 1 5 C2.32 5.66 3.64 6.32 5 7 C4.67 7.99 4.34 8.98 4 10 C3.01 10.33 2.02 10.66 1 11 C0.67 10.34 0.34 9.68 0 9 C0.66 9 1.32 9 2 9 C1.12744839 6.3593351 1.12744839 6.3593351 -1 4 C-3.90588457 3.34885376 -6.72778626 3.52968097 -9.6875 3.6875 C-10.88342773 3.72133789 -10.88342773 3.72133789 -12.10351562 3.75585938 C-14.06981334 3.81473056 -16.03514491 3.90441245 -18 4 C-18 3.67 -18 3.34 -18 3 C-16.86820313 2.86722656 -15.73640625 2.73445312 -14.5703125 2.59765625 C-13.08851821 2.4194658 -11.60674864 2.24106971 -10.125 2.0625 C-9.00544922 1.93198242 -9.00544922 1.93198242 -7.86328125 1.79882812 C-3.8046769 1.36673937 -3.8046769 1.36673937 0 0 Z " fill="#238994" transform="translate(70,159)"/>
<path d="M0 0 C0.90492188 0.2165625 0.90492188 0.2165625 1.828125 0.4375 C2.62734375 0.623125 3.4265625 0.80875 4.25 1 C5.03890625 1.185625 5.8278125 1.37125 6.640625 1.5625 C9.25556002 2.12154828 9.25556002 2.12154828 13 2 C13.99 2.66 14.98 3.32 16 4 C14.576875 4.0928125 14.576875 4.0928125 13.125 4.1875 C12.09375 4.455625 11.0625 4.72375 10 5 C8.54708727 7.46255685 8.54708727 7.46255685 8 10 C6.68 9.67 5.36 9.34 4 9 C4.99 8.01 5.98 7.02 7 6 C6.4946875 5.65066406 5.989375 5.30132812 5.46875 4.94140625 C4.49421875 4.25884766 4.49421875 4.25884766 3.5 3.5625 C2.8503125 3.11003906 2.200625 2.65757812 1.53125 2.19140625 C1.0259375 1.79824219 0.520625 1.40507812 0 1 C0 0.67 0 0.34 0 0 Z " fill="#38A7B4" transform="translate(678,160)"/>
<path d="M0 0 C2 2 2 2 2 5 C3.98 5 5.96 5 8 5 C8.33 6.98 8.66 8.96 9 11 C7.35 11.33 5.7 11.66 4 12 C3.32645501 10.56570999 2.66140299 9.12742943 2 7.6875 C1.62875 6.88699219 1.2575 6.08648437 0.875 5.26171875 C0 3 0 3 0 0 Z " fill="#42ADBF" transform="translate(665,137)"/>
<path d="M0 0 C0 3 0 3 -1.5625 5.3125 C-3.36124716 8.67537512 -2.92569192 10.38138615 -2 14 C-2.61875 13.79375 -3.2375 13.5875 -3.875 13.375 C-4.57625 13.25125 -5.2775 13.1275 -6 13 C-6.66 13.66 -7.32 14.32 -8 15 C-8 13.68 -8 12.36 -8 11 C-7.34 11 -6.68 11 -6 11 C-6.12375 10.29875 -6.2475 9.5975 -6.375 8.875 C-5.81845541 4.60815815 -3.15146124 2.72939054 0 0 Z " fill="#3DAFC1" transform="translate(678,172)"/>
<path d="M0 0 C1.794375 0.7115625 1.794375 0.7115625 3.625 1.4375 C11.08658141 4.1933454 18.11851489 4.11477891 26 4 C25.67 4.66 25.34 5.32 25 6 C16.7574683 6.26305952 9.08808989 5.60614551 1 4 C0.67 2.68 0.34 1.36 0 0 Z " fill="#48A4AF" transform="translate(105,286)"/>
<path d="M0 0 C-0.61277612 2.96175123 -1.25372522 4.38058783 -3 7 C-3 7.99 -3 8.98 -3 10 C-4.65 10 -6.3 10 -8 10 C-7.34 7.69 -6.68 5.38 -6 3 C-5.34 3 -4.68 3 -4 3 C-4 2.34 -4 1.68 -4 1 C-2 0 -2 0 0 0 Z " fill="#30BCCF" transform="translate(660,285)"/>
<path d="M0 0 C2.64 1.32 5.28 2.64 8 4 C7.67 4.99 7.34 5.98 7 7 C2.44262737 6.56179109 -0.57653445 6.14958831 -4 3 C-3.01 2.67 -2.02 2.34 -1 2 C-0.67 1.34 -0.34 0.68 0 0 Z " fill="#41BBCF" transform="translate(682,156)"/>
<path d="M0 0 C3.63 0 7.26 0 11 0 C10.67 0.99 10.34 1.98 10 3 C11.65 3.33 13.3 3.66 15 4 C15 4.33 15 4.66 15 5 C12.36 5 9.72 5 7 5 C6.67 4.01 6.34 3.02 6 2 C4.35 2.33 2.7 2.66 1 3 C0.67 2.01 0.34 1.02 0 0 Z " fill="#21BDCF" transform="translate(616,292)"/>
<path d="M0 0 C0.33 0 0.66 0 1 0 C1 5.61 1 11.22 1 17 C0.01 17 -0.98 17 -2 17 C-2.22084624 10.90218999 -2.01167675 5.78357065 0 0 Z " fill="#25BDD1" transform="translate(666,218)"/>
<path d="M0 0 C0.33 0 0.66 0 1 0 C1.99849626 9.75557837 1.97533115 18.31924488 0 28 C-0.33 28 -0.66 28 -1 28 C-1.12873737 18.58786748 -0.79822348 9.37912587 0 0 Z " fill="#1C606B" transform="translate(92,218)"/>
<path d="M0 0 C0.33 0 0.66 0 1 0 C1.95498418 4.7749209 2.24243031 9.15139376 2 14 C1.34 14.66 0.68 15.32 0 16 C-2.36778744 10.96845169 -2.7717603 6.31528089 -1 1 C-0.67 0.67 -0.34 0.34 0 0 Z " fill="#28BBCF" transform="translate(665,109)"/>
<path d="M0 0 C0.66 1.32 1.32 2.64 2 4 C2.66 4 3.32 4 4 4 C4.33 3.34 4.66 2.68 5 2 C5.042721 3.66611905 5.04063832 5.33382885 5 7 C4.67 7.33 4.34 7.66 4 8 C3.76924918 9.34747084 3.58846937 10.70377565 3.4375 12.0625 C3.2209375 14.0115625 3.2209375 14.0115625 3 16 C-0.42724441 10.85913339 -0.1015597 5.99202204 0 0 Z " fill="#39A4AF" transform="translate(662,121)"/>
<path d="M0 0 C2.69082872 0.17635452 5.32851446 0.61835921 8 1 C8 1.66 8 2.32 8 3 C4.16275828 3.90413673 0.62497726 4.10576898 -3.3125 4.0625 C-4.38113281 4.05347656 -5.44976562 4.04445313 -6.55078125 4.03515625 C-7.35902344 4.02355469 -8.16726562 4.01195312 -9 4 C-9 3.34 -9 2.68 -9 2 C-6.94921875 1.77213542 -4.8984375 1.54427083 -2.84765625 1.31640625 C-0.98859771 1.18113386 -0.98859771 1.18113386 0 0 Z " fill="#3EC2D8" transform="translate(125,40)"/>
<path d="M0 0 C0.33 0 0.66 0 1 0 C1.54903492 6.31390154 -0.05669718 11.39268586 -3 17 C-3.66 17.33 -4.32 17.66 -5 18 C-3.75971762 11.82777121 -2.10396411 5.93317878 0 0 Z " fill="#56BACD" transform="translate(668,272)"/>
<path d="M0 0 C2.02350324 3.03525486 2.32124018 4.19426202 2.625 7.6875 C2.69976563 8.49574219 2.77453125 9.30398437 2.8515625 10.13671875 C2.90054688 10.75160156 2.94953125 11.36648437 3 12 C2.01 11.67 1.02 11.34 0 11 C-1.62651522 7.74696956 -1.11453156 4.60774398 -1 1 C-0.67 0.67 -0.34 0.34 0 0 Z " fill="#37BACC" transform="translate(666,128)"/>
<path d="M0 0 C0.66 0 1.32 0 2 0 C2 0.66 2 1.32 2 2 C2.66 2 3.32 2 4 2 C4 2.66 4 3.32 4 4 C5.32 4.66 6.64 5.32 8 6 C7.01 6 6.02 6 5 6 C5 6.66 5 7.32 5 8 C1.125 7.125 1.125 7.125 0 6 C-0.04080783 4.00041636 -0.04254356 1.99954746 0 0 Z " fill="#3397A4" transform="translate(49,165)"/>
<path d="M0 0 C0.33 0 0.66 0 1 0 C2.32594359 5.96674616 2.0884587 11.92583615 2 18 C1.01 17.67 0.02 17.34 -1 17 C-0.67 11.39 -0.34 5.78 0 0 Z " fill="#368792" transform="translate(91,115)"/>
<path d="M0 0 C0.33 0.99 0.66 1.98 1 3 C1.66 3 2.32 3 3 3 C3 4.65 3 6.3 3 8 C2.67 8 2.34 8 2 8 C1.67 12.95 1.34 17.9 1 23 C0.67 23 0.34 23 0 23 C0 15.41 0 7.82 0 0 Z " fill="#4CB8CB" transform="translate(662,215)"/>
<path d="M0 0 C0.33 0 0.66 0 1 0 C1 4.29 1 8.58 1 13 C0.01 13.33 -0.98 13.66 -2 14 C-2.3690205 4.58997722 -2.3690205 4.58997722 0 0 Z " fill="#2DBBCE" transform="translate(94,62)"/>
<path d="M0 0 C0.66 0.66 1.32 1.32 2 2 C2.33 1.34 2.66 0.68 3 0 C3.66 0 4.32 0 5 0 C4.67 3.3 4.34 6.6 4 10 C3.34 9.34 2.68 8.68 2 8 C1.01 8.495 1.01 8.495 0 9 C0 6.03 0 3.06 0 0 Z " fill="#42C0CF" transform="translate(665,249)"/>
<path d="M0 0 C0.99 0 1.98 0 3 0 C3 1.98 3 3.96 3 6 C3.99 6 4.98 6 6 6 C5.67 7.98 5.34 9.96 5 12 C1.75254486 7.86687528 0 5.36067372 0 0 Z " fill="#23BCCE" transform="translate(88,186)"/>
<path d="M0 0 C2.625 -0.1875 2.625 -0.1875 5 0 C5 0.66 5 1.32 5 2 C5.99 2.33 6.98 2.66 8 3 C7.67 3.66 7.34 4.32 7 5 C2.545 4.01 2.545 4.01 -2 3 C-1.34 2.01 -0.68 1.02 0 0 Z " fill="#39BAD1" transform="translate(691,164)"/>
<path d="M0 0 C2 2 2 2 2.1953125 3.9453125 C2.13020833 5.96354167 2.06510417 7.98177083 2 10 C1.34 10 0.68 10 0 10 C-0.33 10.66 -0.66 11.32 -1 12 C-1.02687279 10.18757948 -1.04633715 8.37504767 -1.0625 6.5625 C-1.07410156 5.55316406 -1.08570312 4.54382813 -1.09765625 3.50390625 C-1 1 -1 1 0 0 Z " fill="#2CBCCF" transform="translate(95,97)"/>
<path d="M0 0 C2.475 0.495 2.475 0.495 5 1 C6 4 6 4 5.0625 6.1875 C4.5365625 7.0846875 4.5365625 7.0846875 4 8 C1 6 1 6 0.3125 2.875 C0.209375 1.92625 0.10625 0.9775 0 0 Z " fill="#26BCCC" transform="translate(81,178)"/>
<path d="M0 0 C3.63 0.66 7.26 1.32 11 2 C11 2.33 11 2.66 11 3 C-0.52164009 4.33257403 -0.52164009 4.33257403 -6 3 C-6 2.67 -6 2.34 -6 2 C-4.02 2 -2.04 2 0 2 C0 1.34 0 0.68 0 0 Z " fill="#45ACBA" transform="translate(623,41)"/>
<path d="M0 0 C0.66 0 1.32 0 2 0 C2.6987693 1.76641683 3.38366583 3.53832664 4.0625 5.3125 C4.44535156 6.29863281 4.82820313 7.28476562 5.22265625 8.30078125 C6 11 6 11 5 14 C4.34 12.02 3.68 10.04 3 8 C2.34 8 1.68 8 1 8 C0.67 5.36 0.34 2.72 0 0 Z " fill="#429BA6" transform="translate(90,274)"/>
<path d="M0 0 C0.99 0.33 1.98 0.66 3 1 C1.4169423 5.2742558 -1.50568404 7.26531794 -5 10 C-5.66 9.67 -6.32 9.34 -7 9 C-6.67 8.34 -6.34 7.68 -6 7 C-5.01 7 -4.02 7 -3 7 C-3.33 6.01 -3.66 5.02 -4 4 C-2.68 4 -1.36 4 0 4 C0 2.68 0 1.36 0 0 Z " fill="#37919B" transform="translate(82,155)"/>
<path d="M0 0 C0.99 0 1.98 0 3 0 C3 0.99 3 1.98 3 3 C2.34 3 1.68 3 1 3 C1 4.65 1 6.3 1 8 C-0.32 7.34 -1.64 6.68 -3 6 C-2.01 4.02 -1.02 2.04 0 0 Z " fill="#26BCCF" transform="translate(677,175)"/>
<path d="M0 0 C-0.78375 0.4125 -1.5675 0.825 -2.375 1.25 C-5.05891656 3.0392777 -5.88098949 4.04988139 -7 7 C-7.99 7 -8.98 7 -10 7 C-9.649375 6.38125 -9.29875 5.7625 -8.9375 5.125 C-8.628125 4.42375 -8.31875 3.7225 -8 3 C-8.33 2.34 -8.66 1.68 -9 1 C-5.57367167 -0.61798838 -3.61944899 -1.34053666 0 0 Z " fill="#1C818C" transform="translate(113,37)"/>
<path d="M0 0 C0.99 0.33 1.98 0.66 3 1 C3 3.31 3 5.62 3 8 C0.37812506 6.95125002 -0.79371361 6.35068687 -2.25 3.875 C-2.4975 3.25625 -2.745 2.6375 -3 2 C-2.01 2 -1.02 2 0 2 C0 1.34 0 0.68 0 0 Z " fill="#4CBED0" transform="translate(99,286)"/>
<path d="M0 0 C0.33 0 0.66 0 1 0 C0.85764543 1.72945653 0.71095618 3.45855654 0.5625 5.1875 C0.48128906 6.15042969 0.40007812 7.11335938 0.31640625 8.10546875 C0.02333849 10.78649602 -0.42703754 13.3662986 -1 16 C-1.33 16 -1.66 16 -2 16 C-2 13.36 -2 10.72 -2 8 C-2.66 7.67 -3.32 7.34 -4 7 C-3.525625 6.5875 -3.05125 6.175 -2.5625 5.75 C-0.83733482 3.817815 -0.43415125 2.51807725 0 0 Z " fill="#3E9EAC" transform="translate(98,119)"/>
<path d="M0 0 C2 3 2 3 1.625 5.6875 C1.41875 6.450625 1.2125 7.21375 1 8 C1.66 8.33 2.32 8.66 3 9 C2.34 9.66 1.68 10.32 1 11 C-1 9 -1 9 -1.23046875 7.08984375 C-1.11111111 1.11111111 -1.11111111 1.11111111 0 0 Z " fill="#39BCD2" transform="translate(666,263)"/>
<path d="M0 0 C0.33 0.66 0.66 1.32 1 2 C2.98 1.67 4.96 1.34 7 1 C7.33 1.66 7.66 2.32 8 3 C3.375 5.125 3.375 5.125 0 4 C-0.33 3.01 -0.66 2.02 -1 1 C-0.67 0.67 -0.34 0.34 0 0 Z " fill="#38B5C6" transform="translate(51,163)"/>
<path d="M0 0 C2 2 2 2 2.125 5.625 C2.08375 6.73875 2.0425 7.8525 2 9 C1.67 8.01 1.34 7.02 1 6 C0.01 6.33 -0.98 6.66 -2 7 C-2.125 4.625 -2.125 4.625 -2 2 C-1.34 1.34 -0.68 0.68 0 0 Z " fill="#37B9CD" transform="translate(91,137)"/>
<path d="M0 0 C1.65 0 3.3 0 5 0 C4.25 5.75 4.25 5.75 2 8 C1.34 5.36 0.68 2.72 0 0 Z " fill="#36A6B3" transform="translate(91,135)"/>
<path d="M0 0 C1.98 0 3.96 0 6 0 C5.443125 0.4125 4.88625 0.825 4.3125 1.25 C1.83804044 3.12256399 -0.5835229 5.05339344 -3 7 C-3.33 5.02 -3.66 3.04 -4 1 C-2.68 1.33 -1.36 1.66 0 2 C0 1.34 0 0.68 0 0 Z " fill="#40A0AE" transform="translate(103,45)"/>
<path d="M0 0 C0.33 1.32 0.66 2.64 1 4 C-1.97 3.67 -4.94 3.34 -8 3 C-7 1 -7 1 -4.5625 -0.1875 C-2 -1 -2 -1 0 0 Z " fill="#3FBBD1" transform="translate(632,39)"/>
<path d="M0 0 C0.66 0.33 1.32 0.66 2 1 C-0.64 3.64 -3.28 6.28 -6 9 C-6.33 8.34 -6.66 7.68 -7 7 C-4.78071806 4.09197539 -3.07030857 2.04687238 0 0 Z " fill="#A5A5A5" transform="translate(317,78)"/>
<path d="M0 0 C4.95 0.99 4.95 0.99 10 2 C10 2.66 10 3.32 10 4 C3.375 3.375 3.375 3.375 0 0 Z " fill="#51BDCA" transform="translate(102,294)"/>
<path d="M0 0 C0.33 0 0.66 0 1 0 C1.33 4.29 1.66 8.58 2 13 C1.34 13 0.68 13 0 13 C-1.29676812 8.38926889 -0.71109139 4.66159911 0 0 Z " fill="#20666D" transform="translate(668,236)"/>
<path d="M0 0 C-0.125 1.75 -0.125 1.75 -1 4 C-4.0625 6.25 -4.0625 6.25 -7 8 C-4.18918919 0 -4.18918919 0 0 0 Z " fill="#A5A5A5" transform="translate(143,201)"/>
<path d="M0 0 C2.1519437 3.22791555 2.20086443 4.28400809 2 8 C1.01 7.01 0.02 6.02 -1 5 C-2.32 5.99 -3.64 6.98 -5 8 C-3.62845496 5.04590299 -2.01136276 2.55991624 0 0 Z " fill="#49BCCA" transform="translate(84,148)"/>
<path d="M0 0 C1.32 0 2.64 0 4 0 C4 1.65 4 3.3 4 5 C2.68 5.33 1.36 5.66 0 6 C-1.24546405 3.50907189 -0.7767578 2.58919267 0 0 Z " fill="#20B7C9" transform="translate(616,37)"/>
<path d="M0 0 C2.64 0.99 5.28 1.98 8 3 C8 3.66 8 4.32 8 5 C5.69 4.67 3.38 4.34 1 4 C0.67 2.68 0.34 1.36 0 0 Z " fill="#49ABB9" transform="translate(105,286)"/>
<path d="M0 0 C0.33 0.66 0.66 1.32 1 2 C0.22265625 4.1640625 0.22265625 4.1640625 -0.9375 6.625 C-1.31777344 7.44226563 -1.69804688 8.25953125 -2.08984375 9.1015625 C-2.39019531 9.72804687 -2.69054687 10.35453125 -3 11 C-3.95199108 7.61033479 -4.07772072 5.41278228 -3 2 C-2.01 1.34 -1.02 0.68 0 0 Z " fill="#55B9CE" transform="translate(674,189)"/>
<path d="M0 0 C0.66 1.32 1.32 2.64 2 4 C1.01 5.485 1.01 5.485 0 7 C-0.33 6.67 -0.66 6.34 -1 6 C-3.33297433 5.95907063 -5.66705225 5.95758277 -8 6 C-7.67 5.34 -7.34 4.68 -7 4 C-3.9375 3.375 -3.9375 3.375 -1 3 C-0.67 2.01 -0.34 1.02 0 0 Z " fill="#3DB6C5" transform="translate(687,166)"/>
<path d="M0 0 C3.19902639 -0.08886184 5.92677456 0.08941469 9 1 C9 1.66 9 2.32 9 3 C2.25 3.125 2.25 3.125 0 2 C0 1.34 0 0.68 0 0 Z " fill="#39BBD2" transform="translate(59,168)"/>
<path d="M0 0 C3.465 1.98 3.465 1.98 7 4 C7 4.33 7 4.66 7 5 C4.69 5 2.38 5 0 5 C0 3.35 0 1.7 0 0 Z " fill="#256975" transform="translate(655,38)"/>
<path d="M0 0 C0.33 0.99 0.66 1.98 1 3 C-1.64 3.33 -4.28 3.66 -7 4 C-7 3.34 -7 2.68 -7 2 C-4.69 1.34 -2.38 0.68 0 0 Z " fill="#41B3C2" transform="translate(115,41)"/>
<path d="M0 0 C1.4540625 0.0309375 1.4540625 0.0309375 2.9375 0.0625 C0.08443203 2.38722205 -2.60324837 3.8133258 -6.0625 5.0625 C-3.64893617 0.07446809 -3.64893617 0.07446809 0 0 Z " fill="#A3A3A3" transform="translate(475.0625,242.9375)"/>
<path d="M0 0 C0.66 0.33 1.32 0.66 2 1 C2 1.99 2 2.98 2 4 C0.02 4.66 -1.96 5.32 -4 6 C-2.84826645 3.53199953 -1.95216435 1.95216435 0 0 Z " fill="#29BCCD" transform="translate(83,152)"/>
<path d="" fill="#000000" transform="translate(0,0)"/>
<path d="" fill="#000000" transform="translate(0,0)"/>
<path d="" fill="#000000" transform="translate(0,0)"/>
<path d="" fill="#000000" transform="translate(0,0)"/>
<path d="" fill="#000000" transform="translate(0,0)"/>
<path d="" fill="#000000" transform="translate(0,0)"/>
<path d="" fill="#000000" transform="translate(0,0)"/>
<path d="" fill="#000000" transform="translate(0,0)"/>
<path d="" fill="#000000" transform="translate(0,0)"/>
<path d="" fill="#000000" transform="translate(0,0)"/>
<path d="" fill="#000000" transform="translate(0,0)"/>
<path d="" fill="#000000" transform="translate(0,0)"/>
<path d="" fill="#000000" transform="translate(0,0)"/>
<path d="" fill="#000000" transform="translate(0,0)"/>
<path d="" fill="#000000" transform="translate(0,0)"/>
<path d="" fill="#000000" transform="translate(0,0)"/>
<path d="" fill="#000000" transform="translate(0,0)"/>
<path d="" fill="#000000" transform="translate(0,0)"/>
<path d="" fill="#000000" transform="translate(0,0)"/>
<path d="" fill="#000000" transform="translate(0,0)"/>
<path d="" fill="#000000" transform="translate(0,0)"/>
<path d="" fill="#000000" transform="translate(0,0)"/>
<path d="" fill="#000000" transform="translate(0,0)"/>
<path d="" fill="#000000" transform="translate(0,0)"/>
<path d="" fill="#000000" transform="translate(0,0)"/>
<path d="" fill="#000000" transform="translate(0,0)"/>
<path d="" fill="#000000" transform="translate(0,0)"/>
<path d="" fill="#000000" transform="translate(0,0)"/>
<path d="" fill="#000000" transform="translate(0,0)"/>
<path d="" fill="#000000" transform="translate(0,0)"/>
<path d="" fill="#000000" transform="translate(0,0)"/>
<path d="" fill="#000000" transform="translate(0,0)"/>
<path d="" fill="#000000" transform="translate(0,0)"/>
<path d="" fill="#000000" transform="translate(0,0)"/>
<path d="" fill="#000000" transform="translate(0,0)"/>
<path d="" fill="#000000" transform="translate(0,0)"/>
<path d="" fill="#000000" transform="translate(0,0)"/>
<path d="" fill="#000000" transform="translate(0,0)"/>
<path d="" fill="#000000" transform="translate(0,0)"/>
<path d="" fill="#000000" transform="translate(0,0)"/>
<path d="" fill="#000000" transform="translate(0,0)"/>
<path d="" fill="#000000" transform="translate(0,0)"/>
<path d="" fill="#000000" transform="translate(0,0)"/>
<path d="" fill="#000000" transform="translate(0,0)"/>
<path d="" fill="#000000" transform="translate(0,0)"/>
<path d="" fill="#000000" transform="translate(0,0)"/>
<path d="" fill="#000000" transform="translate(0,0)"/>
<path d="" fill="#000000" transform="translate(0,0)"/>
<path d="" fill="#000000" transform="translate(0,0)"/>
<path d="" fill="#000000" transform="translate(0,0)"/>
<path d="" fill="#000000" transform="translate(0,0)"/>
</svg>
